<svg  xmlns="http://www.w3.org/2000/svg" xmlns:xlink="http://www.w3.org/1999/xlink" width="798" height="200" viewBox="0 0 822 224"><path transform="translate(0 100)" d="M32.2,7.3Q33.7,3.1 34.2,0.4L39.8,-25.4L17.8,-24.5L17.5,-21.5L17.4,-21.2Q17,-19.3 15.1,-19.3Q13.9,-19.3 12.2,-20.2Q10.5,-21.1 11,-23.2L11.1,-24Q11.7,-25.6 11.95,-26.95Q12.2,-28.3 12.3,-29.7L15.2,-51.5Q15.7,-54.7 14.9,-56.55Q14.1,-58.4 14.25,-59.1Q14.4,-59.8 15.8,-59.8Q17.2,-59.8 22.1,-57.7L47.2,-59.2L51,-76.4Q51.4,-78.5 50.95,-79.95Q50.5,-81.4 50.65,-82.1Q50.8,-82.8 51.55,-82.8Q52.3,-82.8 54,-82.5Q58.7,-81.6 58.1,-78.8L53.9,-59.6L81.2,-61.2Q82,-61.3 82.6,-61.3L83.5,-61.3Q87,-61.3 87.4,-58.6Q87.6,-57.6 87.45,-57.05Q87.3,-56.5 86.8,-55.85Q86.3,-55.2 86,-54.5L78.6,-32.9Q80.7,-29.7 80.5,-28.6Q80.3,-27.5 79.25,-27.3Q78.2,-27.1 76.8,-27L46.5,-25.7L38.9,8.9Q38.4,11.4 36.4,11.4Q34.2,11.4 33.05,10.1Q31.9,8.8 32.2,7.3ZM79.6,-55.2L52.6,-53.7L47.7,-31.5L72.4,-32.6L79.6,-55.2ZM46,-53.3L21.4,-51.9L18.6,-30.2L41.2,-31.2L46,-53.3Z"></path><path transform="translate(100 100)" d="M10.6,-59.2Q13,-58.7 15.7,-58.7L17,-58.7L47.5,-60.5L50,-73Q50.5,-75.3 49.95,-76.45Q49.4,-77.6 49.55,-78.3Q49.7,-79 51.55,-79Q53.4,-79 55.6,-78.2Q57.8,-77.4 57.5,-76.1L54.2,-60.9L83,-62.6Q86.4,-62.9 87.5,-63.2Q88.6,-63.5 89.5,-63.5Q90.4,-63.5 91.55,-62.55Q92.7,-61.6 93.45,-60.5Q94.2,-59.4 94,-58.8Q93.7,-57.4 91.8,-57.2L73.2,-56.1Q68.2,-47.6 61.4,-38.85Q54.6,-30.1 47.9,-23.4Q62.5,-6 82.1,2.6Q83.4,3.1 83.25,3.65Q83.1,4.2 81.9,5.5Q78.5,8.8 76.2,8.8Q75.7,8.8 75.3,8.6Q56.5,-1.3 42.7,-18.6Q28.5,-6.5 11.5,1.4Q4.4,4.7 -0.45,6.35Q-5.3,8 -6.6,8Q-7.9,8 -7.7,7.3Q-7.5,6.4 -5.4,5.4Q12,-3 26.5,-13Q33.8,-18.1 39.2,-23.1Q32.1,-34.1 26.8,-53.5L18.1,-53Q16.2,-52.8 14.6,-52.8Q13,-52.8 12,-53.3Q10.5,-54.1 9.8,-57Q9.7,-57.5 9.65,-57.8Q9.6,-58.1 9.7,-58.5Q9.8,-59.2 10.6,-59.2ZM33.6,-53.9Q37.9,-37.7 44.4,-28Q56.6,-40.5 65.1,-55.7L33.6,-53.9Z"></path><path transform="translate(200 100)" d="M73.2,0.4L72.8,4.1Q72.3,6 70.6,7.55Q68.9,9.1 67.35,9.1Q65.8,9.1 63.9,7.95Q62,6.8 59.95,5.05Q57.9,3.3 56.2,1.45Q54.5,-0.4 53.5,-1.95Q52.5,-3.5 52.65,-4.2Q52.8,-4.9 53.7,-4.9Q54.6,-4.9 58.75,-2.65Q62.9,-0.4 66.9,0.6L82,-67.8L22.9,-64.2L7.9,6Q7.4,8.7 5.4,8.7Q5.3,8.7 4.05,8.35Q2.8,8 1.85,6.9Q0.9,5.8 1.2,4.45Q1.5,3.1 2.2,1.4Q2.9,-0.3 3.5,-3.2L16.5,-63.9Q17.3,-67.7 16.8,-69.05Q16.3,-70.4 16.45,-71.25Q16.6,-72.1 18.05,-72.1Q19.5,-72.1 24.4,-69.8L84.4,-73.6L85.7,-73.6Q87.8,-73.6 88.75,-72.45Q89.7,-71.3 89.4,-69.9L88.5,-68L73.2,0.4ZM58.9,-42.5Q62.8,-51.3 65,-58.7L65.2,-59.5Q65.4,-60.8 65.35,-61.55Q65.3,-62.3 65.4,-62.8Q65.5,-63.3 66.05,-63.3Q66.6,-63.3 67.9,-62.9Q71.9,-61.7 71.5,-59.7Q70.9,-56.6 67.9,-49.55Q64.9,-42.5 61.8,-37L62.9,-35Q69.4,-22.7 69,-20.8Q68.8,-19.8 67.25,-18.6Q65.7,-17.4 64.6,-17.4Q63.5,-17.4 62.8,-19.3Q62,-22.3 58.1,-30.6Q52.6,-21.5 47,-14.85Q41.4,-8.2 37.2,-4.6Q33,-1 32,-1Q31,-1 31.2,-1.8Q31.4,-2.9 33.2,-4.7Q45.8,-17.1 55.5,-35.8Q51.5,-43.7 49.5,-46.7Q47.5,-49.7 47.65,-50.35Q47.8,-51 49.2,-52.2Q50.5,-53.1 51.1,-53.1Q51.7,-53.1 52.95,-51.85Q54.2,-50.6 58.9,-42.5ZM27.9,-51.8Q29.5,-51.8 34.6,-40.9Q38.9,-49.2 41.6,-57.5L41.7,-57.9Q42,-59.2 41.9,-60.15Q41.8,-61.1 41.9,-61.3Q42,-62 42.95,-62Q43.9,-62 45.1,-61.6Q48.3,-60.6 47.8,-58.3L47.7,-57.9Q43.6,-46.6 37.1,-35.4Q43.2,-22.5 42.9,-21.15Q42.6,-19.8 41,-18.65Q39.4,-17.5 38.4,-17.5Q37.4,-17.5 36.8,-19.6Q35.5,-23.8 33.4,-29.3Q25.6,-17.3 17.7,-10.2Q14.4,-7.2 13.55,-7.2Q12.7,-7.2 12.85,-8.1Q13,-9 14.4,-10.6Q23,-20.3 31.3,-34.6Q28.2,-42 24.8,-47.4Q24.6,-47.9 24.45,-48.3Q24.3,-48.7 24.45,-49.35Q24.6,-50 25.95,-50.9Q27.3,-51.8 27.9,-51.8Z"></path><path transform="translate(300 100)" d="M23.1,-60.8Q14.9,-47 12.9,-45.6Q12.3,-45.2 12,-45.2Q11.7,-45.2 10.7,-45.6Q7.9,-46.9 8.3,-48.6Q8.3,-48.9 12.3,-54.35Q16.3,-59.8 21.9,-69.9Q22.9,-71.9 24.3,-71.9Q24.9,-71.9 25.8,-71.6Q28.1,-70.7 27.8,-69.4Q27.7,-69.1 27.3,-68.3L26.2,-66.3L49.3,-67.6L50.9,-75.6Q51.3,-77.5 50.6,-78.95Q49.9,-80.4 50,-80.8Q50.2,-81.6 51.45,-81.6Q52.7,-81.6 54.6,-81.1Q58.5,-80 58.1,-78.2L55.8,-68L89.8,-69.9L90.7,-69.9Q92.7,-69.9 93.8,-68.7Q94.9,-67.5 94.7,-66.55Q94.5,-65.6 93.65,-65Q92.8,-64.4 92.45,-63.95Q92.1,-63.5 90.9,-62Q79.7,-49.1 77.1,-49.1Q76.3,-49.1 76.5,-50.05Q76.7,-51 79.45,-54.55Q82.2,-58.1 85.5,-64.1L23.1,-60.8ZM25.2,-51.2L29,-50.6L30.5,-50.6Q30.9,-50.6 31.3,-50.7L66.4,-53.3Q66.9,-53.4 67.3,-53.4L67.9,-53.4Q70.8,-53.4 72.1,-50.8Q72.7,-49.8 72.55,-49Q72.4,-48.2 71.25,-47.5Q70.1,-46.8 69.5,-46.3Q58.3,-37.1 48.1,-31.2L48.5,-27.5L77.8,-28.8Q81.1,-29.1 82.15,-29.45Q83.2,-29.8 83.7,-29.8Q84.2,-29.8 85.4,-29Q88.7,-26.6 88.3,-24.8Q88,-23.6 85.4,-23.4L48.6,-21.8Q48.4,-17.6 46.9,-9.2L46.5,-7.5Q43.4,7.4 38.7,9.6Q37.6,10.1 36.55,10.1Q35.5,10.1 31.8,8Q28.1,5.9 23.25,1.25Q18.4,-3.4 18.7,-4.7Q18.8,-5.2 19.6,-5.2Q20.4,-5.2 22.1,-4.3Q28.6,-0.6 32.65,0.8Q36.7,2.2 37,2.2Q37.3,2.2 38.3,-0.6Q39.3,-3.4 40.65,-9.55Q42,-15.7 42.2,-21.5L7.4,-20.1L4.6,-20Q2.6,-20 2,-21Q0.1,-24.5 0.3,-25.4Q0.5,-26.3 0.9,-26.3Q1.3,-26.3 2.4,-25.95Q3.5,-25.6 5.8,-25.6L6.7,-25.6L42,-27.2Q41.7,-31.1 41,-33.4Q40.3,-35.7 40.5,-36.65Q40.7,-37.6 42,-38.25Q43.3,-38.9 44.65,-38.9Q46,-38.9 46.8,-36.4Q57.1,-42.6 62.2,-47.4L32.2,-45Q30.3,-44.8 28.6,-44.8Q26.9,-44.8 25.95,-46.05Q25,-47.3 24.65,-48.7Q24.3,-50.1 24.4,-50.5Q24.5,-51.2 25.2,-51.2Z"></path><path transform="translate(400 100)" d="M22,-42.4L10.4,-41.3Q9.8,-41.2 9.3,-41.2L8.2,-41.2Q5.5,-41.2 4.15,-43.1Q2.8,-45 3,-46Q3.2,-47 3.9,-47Q6.4,-46.6 7.4,-46.6L8.7,-46.6Q9.1,-46.6 9.6,-46.7L26.8,-48.5Q27.6,-48.5 29.05,-47.45Q30.5,-46.4 30.25,-45.35Q30,-44.3 29.2,-43.7L28.4,-43L20.2,-10.6Q22.3,-11.8 28.65,-15.8Q35,-19.8 36.25,-19.85Q37.5,-19.9 37.4,-19.3Q37.3,-18.7 35.1,-16.8Q32.9,-14.9 26.05,-8.95Q19.2,-3 16.35,-1.55Q13.5,-0.1 12.35,0.05Q11.2,0.2 9.65,-0.9Q8.1,-2 7.05,-3.35Q6,-4.7 6.1,-5.3Q6.2,-5.8 8.2,-6.15Q10.2,-6.5 13.3,-7.6L22,-42.4ZM43.7,-42.1Q41,-42.1 39.4,-43.35Q37.8,-44.6 38,-48.3Q38.1,-48.8 38.35,-48.8Q38.6,-48.8 39.55,-48.35Q40.5,-47.9 42.9,-47.9L44.2,-47.9L62.5,-48.8L68,-74.9Q68.7,-77.8 67.6,-79.2Q67.3,-79.7 67.4,-80.2Q67.5,-81 68.85,-81Q70.2,-81 72.2,-80.35Q74.2,-79.7 74.6,-79.15Q75,-78.6 74.8,-77.3L68.8,-49.2L84.4,-50Q87.8,-50.3 88.8,-50.65Q89.8,-51 90.2,-51Q90.6,-51 91.6,-50.1Q94.5,-47.5 94.2,-45.9Q93.9,-44.8 91.7,-44.6L67.5,-43.3L56.8,7.2Q56.2,9.8 54.4,9.8Q54.2,9.8 52.95,9.35Q51.7,8.9 50.7,7.8Q49.7,6.7 49.95,5.5Q50.2,4.3 51.05,2.5Q51.9,0.7 52.5,-2.1L61.3,-43L45.8,-42.2Q45.3,-42.1 44.7,-42.1L43.7,-42.1ZM39,-60.1Q38.8,-59.2 37,-57.9Q35.2,-56.6 34,-56.6Q32.8,-56.6 31.4,-59.1Q27.3,-66.1 22.3,-71.5Q21.4,-72.6 21.5,-73.25Q21.6,-73.9 22.7,-75.1Q23.8,-76.3 24.85,-76.3Q25.9,-76.3 27.5,-74.85Q29.1,-73.4 31.15,-71.25Q33.2,-69.1 35,-66.8Q36.8,-64.5 38,-62.75Q39.2,-61 39,-60.1Z"></path><path transform="translate(500 100)" d="M77.4,1.9L76.9,5.3Q76.5,7.1 74.6,8.85Q72.7,10.6 71.2,10.6Q69.7,10.6 67.85,9.3Q66,8 63.95,6.05Q61.9,4.1 60.1,2Q58.3,-0.1 57.2,-1.75Q56.1,-3.4 56.25,-4Q56.4,-4.6 57.3,-4.6Q58.2,-4.6 62.15,-2.3Q66.1,-0 70.9,2.1L87.2,-74.8Q87.7,-77 87.05,-78.4Q86.4,-79.8 86.55,-80.45Q86.7,-81.1 88.05,-81.1Q89.4,-81.1 91.5,-80.25Q93.6,-79.4 94,-78.8Q94.4,-78.2 94.2,-77.1L77.4,1.9ZM66,-56.9Q66.5,-59.3 65.7,-61.4Q65.5,-62 65.6,-62.3Q65.7,-63.1 66.85,-63.1Q68,-63.1 69.95,-62.35Q71.9,-61.6 72.2,-60.95Q72.5,-60.3 72.3,-59.2L62.8,-15Q62.4,-12.9 60.8,-12.9Q58.7,-12.9 57.5,-14.25Q56.3,-15.6 56.6,-17L56.7,-17.5Q56.8,-17.8 57.4,-19.15Q58,-20.5 58.6,-23.6L66,-56.9ZM42,-40L42.4,-41.7Q42.8,-43.3 43.8,-43.4Q44.2,-43.4 45.5,-42.6Q48.9,-40.4 48.4,-37.9Q48.2,-37.3 45.7,-34Q38.7,-24.6 30,-16.2Q32.6,-6.6 38.8,-0.3Q39,-0.1 39.4,-0.1Q41.4,-0.1 48.1,-15L48.9,-16.6Q49.4,-18.3 50.2,-19.1Q51,-19.9 51.5,-19.9Q53,-19.9 52.2,-16.6L52,-16.2Q49.3,-5.9 45.4,2.1Q44.1,4.6 42.85,6.05Q41.6,7.5 39.9,7.5Q38.2,7.5 35.5,5.9Q32.8,4.3 29.95,0.2Q27.1,-3.9 24.8,-11.5Q16.1,-4 5.5,2.1Q-4,7.4 -5.8,7.4Q-6.8,7.5 -6.6,6.75Q-6.4,6 -4.7,4.9Q12.7,-6.7 23.4,-16.7Q20.9,-25.9 21.4,-43.9L12.5,-42.5Q11.4,-42.3 10.1,-42.3Q7.9,-42.2 6.6,-46.2L6.6,-46.8Q6.7,-47.5 7.6,-47.5L7.8,-47.5Q8.3,-47.4 8.7,-47.4L9.5,-47.5Q11,-47.5 12.9,-47.8L21.7,-49.2Q22.2,-59.8 24.5,-72.4Q25,-75.3 23.2,-76.9Q22.7,-77.2 22.8,-77.7Q22.9,-78.2 25.5,-78.25Q28.1,-78.3 29.65,-77.55Q31.2,-76.8 31,-75.4L30.9,-75.2Q28.5,-61.3 27.6,-50.1L49.1,-53.6Q50.9,-53.9 52,-54.35Q53.1,-54.8 53.85,-54.85Q54.6,-54.9 55.4,-54.1Q57.7,-52.1 57.3,-51Q57,-49.6 54.3,-49.3L27.2,-44.8Q26.9,-34.8 28.7,-22.2Q34.9,-28.7 38.3,-33.6Q41.7,-38.5 42,-40ZM49.95,-60Q48.3,-58.8 47.4,-58.8Q46.5,-58.8 44.7,-62.35Q42.9,-65.9 38.1,-71.1Q37.1,-72.3 37.3,-73.2Q37.5,-74.1 38.9,-75.1Q40.3,-76.1 40.95,-76.1Q41.6,-76.1 43.7,-74.2Q45.8,-72.3 49,-68Q52.2,-63.7 51.9,-62.45Q51.6,-61.2 49.95,-60Z"></path><path transform="translate(0 200)" d="M37,-59.9L11.8,-59.9L13.1,-65.8L68.3,-65.8L67.1,-59.9L44.3,-59.9L31.4,-0L24.1,-0L37,-59.9Z"></path><path transform="translate(61 200)" d="M33.25,-0.7Q31.9,-1.9 31.9,-4.3Q31.9,-5.7 32.3,-7.2L37.5,-28.2Q38,-30.2 38,-31.7Q38,-36.5 33.6,-36.5Q29.2,-36.5 24.4,-31.6Q19.6,-26.7 15.6,-18.35Q11.6,-10 9.5,-0L3.4,-0L19.2,-71.1L25.3,-71.1L15.1,-25.6Q19.9,-33.4 25.5,-37.65Q31.1,-41.9 36.5,-41.9Q40.2,-41.9 42.4,-39.75Q44.6,-37.6 44.6,-33.6Q44.6,-31.4 43.9,-28.9L38.6,-8.9Q38.3,-7.9 38.3,-6.9Q38.3,-4.9 40.3,-4.9Q41.7,-4.9 43.35,-6.05Q45,-7.2 47.3,-9.5L49.5,-6.9Q42.6,0.5 37,0.5Q34.6,0.5 33.25,-0.7Z"></path><path transform="translate(113 200)" d="M7.2,-3Q3.4,-6.9 3.4,-13.5Q3.4,-16.4 4.1,-19.2Q5.4,-25.4 9.2,-30.7Q13,-36 18.3,-39.15Q23.6,-42.3 29.3,-42.3Q34,-42.3 36.25,-40.1Q38.5,-37.9 38.5,-34.5Q38.5,-27.4 30.75,-22.85Q23,-18.3 9.9,-16.4Q9.8,-15.6 9.8,-14.2Q9.8,-9.5 12.1,-6.85Q14.4,-4.2 18.9,-4.2Q21.6,-4.2 24.6,-5.35Q27.6,-6.5 30.4,-8.8L32.8,-5.5Q25.8,0.9 17.5,0.9Q11,0.9 7.2,-3ZM26.6,-25.8Q32.5,-29.2 32.5,-33.1Q32.5,-34.9 31.3,-36.15Q30.1,-37.4 27.2,-37.4Q21.6,-37.4 17.05,-32.45Q12.5,-27.5 10.7,-20.6Q20.7,-22.4 26.6,-25.8Z"></path><path transform="translate(153 200)" d=""></path><path transform="translate(175 200)" d="M18.7,-23.9L13.5,-0L6.6,-0L20.9,-65.8L36.7,-65.8Q43.3,-65.8 47.9,-63.35Q52.5,-60.9 54.8,-56.85Q57.1,-52.8 57.1,-47.9Q57.1,-46.1 56.8,-44.1Q55.8,-38.9 52.3,-34.15Q48.8,-29.4 42.65,-26.35Q36.5,-23.3 28.1,-23.3Q23.7,-23.3 18.7,-23.9ZM29.2,-29.1Q37.9,-29.1 43.25,-33.25Q48.6,-37.4 49.9,-43.3Q50.2,-44.8 50.2,-46.4Q50.2,-52 46.2,-55.95Q42.2,-59.9 34.6,-59.9L26.6,-59.9L20,-29.8Q26,-29.1 29.2,-29.1Z"></path><path transform="translate(231 200)" d="M12.8,-41.4L18.7,-41.4L14.9,-25Q19.3,-33.1 24.3,-37.5Q29.3,-41.9 33.9,-41.9Q36,-41.9 38,-41.1Q40,-40.3 41.2,-38.7L37.5,-32.8Q36.3,-34.2 34.6,-35Q32.9,-35.8 31.4,-35.8Q27.9,-35.8 23.55,-31.4Q19.2,-27 15.3,-18.8Q11.4,-10.6 9.3,-0L3.2,-0L12.8,-41.4Z"></path><path transform="translate(268 200)" d="M7,-3.15Q3.5,-7.1 3.5,-13.6Q3.5,-16.2 4.1,-19.2Q5.4,-25.7 8.9,-30.95Q12.4,-36.2 17.45,-39.25Q22.5,-42.3 28.1,-42.3Q34.5,-42.3 38.05,-38.4Q41.6,-34.5 41.6,-28Q41.6,-25.3 41,-22.3Q39.7,-16 36.25,-10.7Q32.8,-5.4 27.75,-2.3Q22.7,0.8 17,0.8Q10.5,0.8 7,-3.15ZM28.5,-9.2Q32.8,-14.4 34.4,-21.9Q35,-24.6 35,-27Q35,-31.8 32.85,-34.6Q30.7,-37.4 26.6,-37.4Q21.2,-37.4 16.75,-32.5Q12.3,-27.6 10.7,-19.7Q10.2,-16.7 10.2,-14.6Q10.2,-9.7 12.4,-6.85Q14.6,-4 18.6,-4Q24.2,-4 28.5,-9.2Z"></path><path transform="translate(313 200)" d="M13.2,-41.4L19.5,-41.4L10.4,1.4Q7.9,13 2.4,19.75Q-3.1,26.5 -11.7,29L-12.9,25.8Q0,20.2 4.2,0.8L13.2,-41.4ZM16.15,-54.7Q15,-55.9 15,-57.7Q15,-60 16.45,-61.5Q17.9,-63 20.2,-63Q22.1,-63 23.25,-61.85Q24.4,-60.7 24.4,-58.8Q24.4,-56.5 22.95,-55Q21.5,-53.5 19.3,-53.5Q17.3,-53.5 16.15,-54.7Z"></path><path transform="translate(336 200)" d="M7.2,-3Q3.4,-6.9 3.4,-13.5Q3.4,-16.4 4.1,-19.2Q5.4,-25.4 9.2,-30.7Q13,-36 18.3,-39.15Q23.6,-42.3 29.3,-42.3Q34,-42.3 36.25,-40.1Q38.5,-37.9 38.5,-34.5Q38.5,-27.4 30.75,-22.85Q23,-18.3 9.9,-16.4Q9.8,-15.6 9.8,-14.2Q9.8,-9.5 12.1,-6.85Q14.4,-4.2 18.9,-4.2Q21.6,-4.2 24.6,-5.35Q27.6,-6.5 30.4,-8.8L32.8,-5.5Q25.8,0.9 17.5,0.9Q11,0.9 7.2,-3ZM26.6,-25.8Q32.5,-29.2 32.5,-33.1Q32.5,-34.9 31.3,-36.15Q30.1,-37.4 27.2,-37.4Q21.6,-37.4 17.05,-32.45Q12.5,-27.5 10.7,-20.6Q20.7,-22.4 26.6,-25.8Z"></path><path transform="translate(376 200)" d="M7.2,-3.15Q3.5,-7.1 3.5,-13.7Q3.5,-16.4 4.1,-19.2Q5.4,-25.6 9,-30.9Q12.6,-36.2 17.75,-39.25Q22.9,-42.3 28.5,-42.3Q35,-42.3 38.1,-38L33.6,-33.8Q31,-37 26.7,-37Q21,-37 16.6,-32.05Q12.2,-27.1 10.6,-19.7Q10,-16.9 10,-14.5Q10,-9.7 12.25,-6.95Q14.5,-4.2 18.6,-4.2Q21.6,-4.2 24.5,-5.45Q27.4,-6.7 29.7,-8.8L32.2,-5.6Q29,-2.6 25.15,-0.9Q21.3,0.8 17.2,0.8Q10.9,0.8 7.2,-3.15Z"></path><path transform="translate(413 200)" d="M9.3,-1.5Q7.1,-3.8 7.1,-8Q7.1,-10.3 7.6,-12.2L13.2,-36L5.2,-36.1L6.2,-40.2L14.4,-40.3L17.4,-50L22.9,-51.1L20.4,-40.4L34.9,-40.6L33.8,-35.8L19.4,-36L14,-12.8Q13.5,-10.3 13.5,-9Q13.5,-4.3 17.5,-4.3Q21.6,-4.3 27.4,-9.2L29.7,-6.5Q26.1,-2.9 22.35,-1.05Q18.6,0.8 15.3,0.8Q11.5,0.8 9.3,-1.5Z"></path><path transform="translate(447 200)" d=""></path><path transform="translate(469 200)" d="M20.9,-65.8L57.7,-65.8L56.4,-59.9L26.7,-59.9L21.3,-35L47.5,-35L46.2,-29.2L20,-29.2L13.7,-0L6.6,-0L20.9,-65.8Z"></path><path transform="translate(519 200)" d="M7,-3.15Q3.5,-7.1 3.5,-13.6Q3.5,-16.2 4.1,-19.2Q5.4,-25.7 8.9,-30.95Q12.4,-36.2 17.45,-39.25Q22.5,-42.3 28.1,-42.3Q34.5,-42.3 38.05,-38.4Q41.6,-34.5 41.6,-28Q41.6,-25.3 41,-22.3Q39.7,-16 36.25,-10.7Q32.8,-5.4 27.75,-2.3Q22.7,0.8 17,0.8Q10.5,0.8 7,-3.15ZM28.5,-9.2Q32.8,-14.4 34.4,-21.9Q35,-24.6 35,-27Q35,-31.8 32.85,-34.6Q30.7,-37.4 26.6,-37.4Q21.2,-37.4 16.75,-32.5Q12.3,-27.6 10.7,-19.7Q10.2,-16.7 10.2,-14.6Q10.2,-9.7 12.4,-6.85Q14.6,-4 18.6,-4Q24.2,-4 28.5,-9.2Z"></path><path transform="translate(564 200)" d="M12.8,-41.4L18.7,-41.4L14.9,-25Q19.3,-33.1 24.3,-37.5Q29.3,-41.9 33.9,-41.9Q36,-41.9 38,-41.1Q40,-40.3 41.2,-38.7L37.5,-32.8Q36.3,-34.2 34.6,-35Q32.9,-35.8 31.4,-35.8Q27.9,-35.8 23.55,-31.4Q19.2,-27 15.3,-18.8Q11.4,-10.6 9.3,-0L3.2,-0L12.8,-41.4Z"></path><path transform="translate(602 200)" d=""></path><path transform="translate(624 200)" d="M54,-57L26.6,-0L19,-0L14.2,-65.8L21.7,-65.8L25,-8.8L52.4,-65.8L60.2,-65.8L63.6,-7.8L91.4,-65.8L98.7,-65.8L65.3,-0L57.6,-0L54,-57Z"></path><path transform="translate(710 200)" d="M7.2,-3Q3.4,-6.9 3.4,-13.5Q3.4,-16.4 4.1,-19.2Q5.4,-25.4 9.2,-30.7Q13,-36 18.3,-39.15Q23.6,-42.3 29.3,-42.3Q34,-42.3 36.25,-40.1Q38.5,-37.9 38.5,-34.5Q38.5,-27.4 30.75,-22.85Q23,-18.3 9.9,-16.4Q9.8,-15.6 9.8,-14.2Q9.8,-9.5 12.1,-6.85Q14.4,-4.2 18.9,-4.2Q21.6,-4.2 24.6,-5.35Q27.6,-6.5 30.4,-8.8L32.8,-5.5Q25.8,0.9 17.5,0.9Q11,0.9 7.2,-3ZM26.6,-25.8Q32.5,-29.2 32.5,-33.1Q32.5,-34.9 31.3,-36.15Q30.1,-37.4 27.2,-37.4Q21.6,-37.4 17.05,-32.45Q12.5,-27.5 10.7,-20.6Q20.7,-22.4 26.6,-25.8Z"></path><path transform="translate(750 200)" d="M8.6,-2.35Q5.2,-5.6 5.2,-10.9Q5.2,-12.8 5.6,-14.5L18,-71.1L24.2,-71.1L14.7,-28.6Q18.7,-34.6 24.35,-38.25Q30,-41.9 35.3,-41.9Q40.1,-41.9 42.55,-38.8Q45,-35.7 45,-30.4Q45,-26.8 44,-23.2Q42.2,-16.3 38.25,-10.8Q34.3,-5.3 28.95,-2.2Q23.6,0.9 17.8,0.9Q12,0.9 8.6,-2.35ZM11.4,-12.2Q11.4,-8.4 13.65,-6.3Q15.9,-4.2 19.6,-4.2Q25.3,-4.2 30.05,-8.9Q34.8,-13.6 37,-21.5Q38,-25.5 38,-28.4Q38,-32 36.6,-34.1Q35.2,-36.2 32.2,-36.2Q28.6,-36.2 24.3,-33.5Q20,-30.8 16.65,-26.3Q13.3,-21.8 12.1,-16.7L11.8,-15.4Q11.4,-13.9 11.4,-12.2Z"></path></svg>