<svg  xmlns="http://www.w3.org/2000/svg" xmlns:xlink="http://www.w3.org/1999/xlink" width="867" height="200" viewBox="0 0 891 224"><path transform="translate(0 100)" d="M50.5,12Q48.1,12 46.45,10.55Q44.8,9.1 44.8,7.3Q45.4,3.1 45.4,0.4L45.5,-24.8L25,-23.9L25.2,-21.5Q25.2,-18.7 22.7,-18.7Q21.4,-18.7 19.25,-19.7Q17.1,-20.7 17.1,-23.2L17.1,-24Q17.3,-25.6 17.3,-27L15.3,-51.5Q15.1,-54.5 13.95,-56.35Q12.8,-58.2 12.8,-59.1Q12.8,-60.4 14.8,-60.4Q16.3,-60.4 21.6,-58.3L45.7,-59.8L45.8,-76.4Q45.8,-78.4 45.05,-79.85Q44.3,-81.3 44.3,-82.1Q44.3,-83.4 45.7,-83.4Q46.5,-83.4 48.2,-83.1Q53.6,-82.1 53.6,-78.8L53.5,-60.2L82.1,-61.9Q86,-61.9 87.2,-58.8Q87.6,-57.7 87.6,-57.1Q87.6,-56.3 87.2,-55.65Q86.8,-55 83.9,-33.1Q86.7,-29.9 86.7,-28.6Q86.7,-27 85.3,-26.75Q83.9,-26.5 53.3,-25.1L53.1,8.9Q53.1,12 50.5,12ZM53.3,-32.1L76.6,-33.2L78.8,-54.6L53.5,-53.1L53.3,-32.1ZM24.4,-30.8L45.6,-31.8L45.7,-52.7L22.7,-51.3L24.4,-30.8Z"></path><path transform="translate(100 100)" d="M89.7,9.4Q89.1,9.4 88.5,9.1Q67.6,-0.8 50.4,-17.7Q39.2,-6 23.8,1.9Q17.3,5.3 12.75,6.95Q8.2,8.6 6.8,8.6Q4.9,8.6 4.9,7.3Q4.9,6 7.1,4.9Q32.7,-8.9 45.2,-23.1Q36,-33.8 26.7,-52.9L18.6,-52.4Q16.7,-52.2 15.1,-52.2Q13.4,-52.2 12.1,-52.8Q10.2,-53.7 8.8,-56.8Q8.7,-57.3 8.5,-57.65Q8.3,-58 8.3,-58.5Q8.3,-59.8 9.8,-59.8Q12.3,-59.3 14.9,-59.3Q16.2,-59.3 45.7,-61.1L45.6,-73Q45.6,-75.1 44.8,-76.25Q44,-77.4 44,-78.3Q44,-79.6 46.5,-79.6Q48.4,-79.6 51,-78.7Q53.6,-77.8 53.6,-76.1L53.5,-61.5Q84.1,-63.4 85.4,-63.75Q86.7,-64.1 87.7,-64.1Q88.8,-64.1 90.25,-63.05Q91.7,-62 92.75,-60.8Q93.8,-59.6 93.8,-58.8Q93.8,-56.9 91.3,-56.6L73.4,-55.5Q70.3,-47.3 65.35,-38.55Q60.4,-29.8 55.4,-23.5Q73.2,-6.5 94.5,2Q96.3,2.7 96.3,3.6Q96.3,4.4 95.2,5.9Q92.3,9.4 89.7,9.4ZM50.1,-28.9Q59.2,-40.8 64,-55L34.7,-53.4Q42.1,-38 50.1,-28.9Z"></path><path transform="translate(200 100)" d="M81,9.7Q76.7,9.7 67.7,1.8Q62.8,-2.5 62.8,-4.2Q62.8,-5.5 64.3,-5.5Q65.3,-5.5 70,-3.25Q74.7,-1 78.1,-0.2L78.7,-67.2L21.5,-63.6L21.5,6Q21.5,9.3 18.9,9.3Q18.7,9.3 17.3,8.9Q15.9,8.5 14.55,7.3Q13.2,6.1 13.2,4.4Q13.2,3 13.55,1.35Q13.9,-0.3 14,-63.9Q14,-67.5 13.2,-68.85Q12.4,-70.2 12.4,-71.3Q12.4,-72.7 14.5,-72.7Q16,-72.7 21.3,-70.4L80.4,-74.2Q86.8,-74.2 86.8,-69.8L86.3,-67.9L85.6,0.4L85.9,4.1Q85.9,6.2 84.35,7.95Q82.8,9.7 81,9.7ZM43.5,-0.4Q41.9,-0.4 41.9,-1.8Q41.9,-3.1 43.4,-5.1Q53.3,-17.4 58.9,-35.7Q53.4,-43.3 50.7,-46.4Q48,-49.5 48,-50.4Q48,-51.3 49.35,-52.5Q50.7,-53.7 51.5,-53.7Q52.3,-53.7 53.9,-52.35Q55.5,-51 61.2,-43.8Q63,-51.4 63.6,-59.1Q63.6,-60.7 63.35,-61.45Q63.1,-62.2 63.1,-62.8Q63.1,-63.9 64.3,-63.9Q64.9,-63.9 66.4,-63.5Q71.1,-62.2 71.1,-59.7Q71.1,-56.5 69.6,-49.4Q68.1,-42.3 66.3,-37.1Q76.9,-22.9 76.9,-20.8Q76.9,-19.5 75.4,-18.15Q73.9,-16.8 72.6,-16.8Q71.2,-16.8 69.9,-19Q68.4,-22 63.4,-29.3Q60.2,-21.2 56,-14.5Q51.8,-7.8 48.3,-4.1Q44.8,-0.4 43.5,-0.4ZM23.7,-6.6Q22.2,-6.6 22.2,-8.1Q22.2,-9.2 23.3,-10.9Q29.9,-20.6 34.9,-34.5Q30.4,-41.6 25.9,-47.1Q25.6,-47.6 25.3,-48.05Q25,-48.5 25,-49.4Q25,-50.3 26.4,-51.35Q27.8,-52.4 28.6,-52.4Q30.5,-52.4 37.4,-42.3Q39.5,-49.3 40.5,-57.7Q40.5,-59.1 40.2,-60.05Q39.9,-61 39.9,-61.3Q39.9,-62.6 41.5,-62.6Q42.5,-62.6 43.9,-62.2Q47.7,-61 47.7,-57.9Q46,-46.5 42,-35.5Q50.7,-22.7 50.7,-21.2Q50.7,-19.5 49.15,-18.2Q47.6,-16.9 46.4,-16.9Q45,-16.9 43.8,-19.3Q41.6,-23.5 38.9,-28Q34.1,-17 27.6,-9.8Q24.8,-6.6 23.7,-6.6Z"></path><path transform="translate(300 100)" d="M14.1,-44.6Q13.7,-44.6 12.5,-45Q9,-46.5 9,-48.6Q9,-49 11.85,-54.5Q14.7,-60 18.1,-70.1Q18.9,-72.5 20.7,-72.5Q21.4,-72.5 22.5,-72.2Q25.3,-71.1 25.3,-69.4Q25.3,-68.8 24.7,-67L46,-68.2L45.9,-75.6Q45.9,-77.3 44.9,-78.75Q43.9,-80.2 43.9,-80.8Q43.9,-82.2 45.8,-82.2Q47.1,-82.2 49.1,-81.7Q53.8,-80.5 53.8,-78.2L53.6,-68.6L86.6,-70.5Q89.7,-70.5 91.25,-69.15Q92.8,-67.8 92.8,-66.6Q92.8,-65.3 92.05,-64.65Q91.3,-64 91.05,-63.6Q90.8,-63.2 89.9,-61.7Q81.2,-48.5 78.3,-48.5Q76.9,-48.5 76.9,-50.1Q76.9,-51.2 78.95,-54.75Q81,-58.3 82.7,-63.5L22.3,-60.2Q16.3,-44.6 14.1,-44.6ZM50.4,10.7Q49.2,10.7 44.95,8.55Q40.7,6.4 34.75,1.65Q28.8,-3.1 28.8,-4.7Q28.8,-5.8 30.2,-5.8Q31.1,-5.8 33.2,-4.8Q40.3,-1.2 44.6,0.2Q48.9,1.6 49.1,1.6Q49,1.6 49,1.3Q49,0.8 49.35,-1.3Q49.7,-3.4 49.7,-9.6Q49.7,-15.6 48.8,-20.9L12,-19.4Q9.7,-19.4 8.7,-20.6Q6,-24.3 6,-25.4Q6,-26.9 7,-26.9Q7.5,-26.9 8.65,-26.55Q9.8,-26.2 12,-26.2L47.1,-27.8Q46.2,-30.9 45,-33.25Q43.8,-35.6 43.8,-36.7Q43.8,-38 45.15,-38.75Q46.5,-39.5 48.1,-39.5Q49.8,-39.5 50.9,-37.3Q59.3,-43 62.4,-46.7Q31.9,-44.2 30.8,-44.2Q28.9,-44.2 27.5,-45.6Q26.1,-47 25.4,-48.5Q24.7,-50 24.7,-50.5Q24.7,-51.8 26,-51.8L29.9,-51.2Q31.8,-51.2 49.5,-52.6Q67.2,-54 67.6,-54Q71.4,-54 73.5,-51.2Q74.4,-50 74.4,-49Q74.4,-47.9 73.3,-47.1Q72.2,-46.3 71.7,-45.9Q62.5,-36.6 53.8,-30.9L54.7,-28.1L83.4,-29.4Q86.5,-29.7 87.45,-30.05Q88.4,-30.4 89,-30.4Q89.7,-30.4 91.2,-29.5Q95.3,-26.9 95.3,-24.8Q95.3,-23 92.1,-22.8L56.3,-21.2Q57.2,-15.8 57.2,-7.5Q57.2,10.7 50.4,10.7Z"></path><path transform="translate(400 100)" d="M33.6,-56Q32.1,-56 30,-58.7Q24.5,-65.7 18.4,-71.1Q17,-72.3 17,-73.3Q17,-74.1 18,-75.5Q19,-76.9 20.4,-76.9Q21.6,-76.9 23.6,-75.4Q25.6,-73.9 28.1,-71.7Q30.6,-69.5 32.9,-67.2Q35.2,-64.9 36.85,-63.05Q38.5,-61.2 38.5,-60.1Q38.5,-58.9 36.75,-57.45Q35,-56 33.6,-56ZM68.2,10.4Q67.9,10.4 66.45,9.9Q65,9.4 63.6,8.2Q62.2,7 62.2,5.5Q62.2,4.2 62.65,2.4Q63.1,0.6 63.1,-2.1L63.2,-42.4L48.6,-41.6Q48.1,-41.5 46.9,-41.5Q43.5,-41.5 41.45,-42.85Q39.4,-44.2 38.8,-48.3Q38.8,-49.4 39.7,-49.4Q40,-49.4 41.05,-48.95Q42.1,-48.5 44.4,-48.5Q45.7,-48.5 63.2,-49.4L63.2,-74.9Q63.2,-77.6 62,-78.8Q61.4,-79.5 61.4,-80.2Q61.4,-81.6 63.4,-81.6Q64.8,-81.6 67,-80.9Q69.2,-80.2 69.9,-79.5Q70.6,-78.8 70.6,-77.3L70.6,-49.8L85.4,-50.6Q88.7,-50.9 89.6,-51.25Q90.5,-51.6 91,-51.6Q91.6,-51.6 93,-50.6Q96.7,-47.8 96.7,-45.9Q96.7,-44.3 93.9,-44L70.6,-42.7L70.6,7.2Q70.6,10.4 68.2,10.4ZM24.2,0.6L23.7,0.6Q22.5,0.6 20.75,-0.45Q19,-1.5 17.55,-2.95Q16.1,-4.4 16,-5.3Q16,-6.3 18.15,-6.7Q20.3,-7.1 22.8,-8L24.1,-41.7Q12.3,-40.6 11.1,-40.6Q8.1,-40.6 6.2,-42.7Q4.3,-44.8 4.3,-46Q4.3,-47.6 5.6,-47.6Q8.2,-47.2 9.8,-47.2L28.2,-49.1Q29.2,-49.1 31.05,-47.9Q32.9,-46.7 32.9,-45.4Q32.9,-44 32,-43.3L31.5,-42.7L30.2,-11.7Q31.2,-12.3 36.75,-16.35Q42.3,-20.4 44,-20.4Q45.5,-20.4 45.5,-19.2Q45.5,-18.4 43.65,-16.45Q41.8,-14.5 36.2,-8.5Q30.6,-2.5 28,-1Q25.4,0.5 24.2,0.6Z"></path><path transform="translate(500 100)" d="M46.6,-58.2Q45.4,-58.2 42.8,-61.85Q40.2,-65.5 34.3,-70.7Q32.8,-72 32.8,-73.2Q32.8,-74.4 34.2,-75.55Q35.6,-76.7 36.5,-76.7Q37.3,-76.7 39.9,-74.7Q42.5,-72.7 46.7,-68.3Q50.9,-63.9 50.9,-62.5Q50.9,-60.9 49.3,-59.55Q47.7,-58.2 46.6,-58.2ZM53.2,8.1Q51.4,8.1 48.2,6.45Q45,4.8 41.2,0.6Q37.4,-3.6 33.9,-10.5Q27.3,-3.5 17.9,2.6Q9.4,8 7.4,8Q6,8 6,6.9Q6,5.7 7.6,4.4Q22.6,-7.1 30.8,-16.8Q26.5,-25.7 23.2,-43.2Q13.9,-41.7 12.8,-41.7Q10.1,-41.7 7.9,-46L7.7,-46.7Q7.7,-48.1 9.3,-48.1L10,-48.1Q12.2,-48.1 22.2,-49.7Q20.6,-59.7 20.2,-72.4Q20.1,-75 18.2,-76.4Q17.4,-76.9 17.4,-77.7Q17.4,-78.8 20.6,-78.9Q27.2,-78.9 27.2,-75.3Q27.7,-61.4 29.1,-50.8Q50.9,-54.5 51.9,-54.95Q52.9,-55.4 53.9,-55.5Q54.8,-55.5 56,-54.6Q58.7,-52.5 58.7,-51.2Q58.7,-49.1 55.6,-48.7L30.1,-44.3Q31.8,-35 35.9,-23.5Q40,-29 42.3,-33.8Q44.6,-38.6 44.6,-40L44.6,-41.7Q44.7,-43.8 46.3,-44Q46.9,-44 48.4,-43.1Q52.6,-40.8 52.6,-37.9Q52.5,-37.1 50.6,-33.7Q45.6,-24.3 38.9,-16.1Q43.4,-7 50.8,-0.8Q50.9,-0.7 51.1,-0.7Q52.6,-0.7 56.2,-15.9Q56.9,-20.5 58.9,-20.5Q60.9,-20.5 60.9,-16.4Q60.3,-5.8 58.1,2.3Q57.4,4.9 56.3,6.5Q55.2,8.1 53.2,8.1ZM69.7,-12.3Q67.4,-12.3 65.75,-13.8Q64.1,-15.3 64.1,-17Q64.1,-17.9 64.4,-19.15Q64.7,-20.4 65,-56.9Q65,-59.1 63.8,-61.1Q63.4,-61.9 63.4,-62.3Q63.4,-63.7 65.2,-63.7Q66.4,-63.7 68.65,-62.9Q70.9,-62.1 71.45,-61.3Q72,-60.5 72,-59.2L71.9,-15Q71.9,-12.3 69.7,-12.3ZM85.1,11.2Q83.4,11.2 81.25,9.85Q79.1,8.5 76.55,6.55Q74,4.6 71.8,2.45Q69.6,0.3 68.05,-1.45Q66.5,-3.2 66.5,-4Q66.5,-5.2 68,-5.2Q69,-5.2 73.55,-2.85Q78.1,-0.5 82.4,1.2L82.4,-74.8Q82.4,-76.8 81.45,-78.2Q80.5,-79.6 80.5,-80.5Q80.5,-81.7 82.5,-81.7Q83.9,-81.7 86.3,-80.8Q88.7,-79.9 89.4,-79.15Q90.1,-78.4 90.1,-77.1Q90.1,1.9 90.3,5.3Q90.3,7.3 88.6,9.25Q86.9,11.2 85.1,11.2Z"></path><path transform="translate(0 200)" d="M29,-59L2.9,-59L2.9,-65.8L62.3,-65.8L62.3,-59L37.8,-59L37.8,-0L29,-0L29,-59Z"></path><path transform="translate(62 200)" d="M35.6,-33Q33,-36.3 28.2,-36.3Q25,-36.3 21.7,-34.75Q18.4,-33.2 15.9,-30.2L15.9,-0L8.2,-0L8.2,-70.3L15.9,-71.8L15.9,-35.7Q19.3,-38.9 23.35,-40.55Q27.4,-42.2 31.5,-42.2Q38,-42.2 42,-38Q46,-33.8 46,-26.6L46,-0L38.2,-0L38.2,-23.9Q38.2,-29.7 35.6,-33Z"></path><path transform="translate(116 200)" d="M10.05,-4.5Q4.5,-10 4.5,-19.4Q4.5,-26.2 7.35,-31.45Q10.2,-36.7 15.15,-39.6Q20.1,-42.5 26.2,-42.5Q33.6,-42.5 37.45,-38.2Q41.3,-33.9 41.3,-26.2Q41.3,-23.6 41.1,-22.3L12,-22.3Q11.9,-21.7 11.9,-20.5Q11.9,-13.4 15.85,-9.25Q19.8,-5.1 26.2,-5.1Q32.9,-5.1 38.5,-10.1L41.2,-6Q33.9,1 24.6,1Q15.6,1 10.05,-4.5ZM34.4,-27.2Q34.1,-36.9 25.6,-36.9Q21,-36.9 17.65,-34.3Q14.3,-31.7 12.9,-27.2L34.4,-27.2Z"></path><path transform="translate(162 200)" d=""></path><path transform="translate(187 200)" d="M19,-23.5L19,-0L10.6,-0L10.6,-65.8L29.4,-65.8Q40.5,-65.8 47.25,-60.65Q54,-55.5 54,-46.4Q54,-40 50.6,-34.65Q47.2,-29.3 40.95,-26.15Q34.7,-23 26.6,-23Q22.9,-23 19,-23.5ZM27.5,-29.5Q36.2,-29.5 40.75,-33.4Q45.3,-37.3 45.3,-44.5Q45.3,-51.7 40.65,-55.55Q36,-59.4 28.1,-59.4L19,-59.4L19,-29.9Q23.3,-29.5 27.5,-29.5Z"></path><path transform="translate(244 200)" d="M7.4,-40.9L13.9,-42.3L15.1,-33.6Q21.2,-42.1 29,-42.1Q33.7,-42.1 36.4,-39.8L33.2,-33.2Q32.1,-34.1 30.35,-34.65Q28.6,-35.2 26.7,-35.2Q20.6,-35.2 15.3,-28.2L15.3,-0L7.4,-0L7.4,-40.9Z"></path><path transform="translate(280 200)" d="M14.45,-1.8Q9.6,-4.5 6.85,-9.35Q4.1,-14.2 4.1,-20.2Q4.1,-26.6 7.05,-31.7Q10,-36.8 15.25,-39.65Q20.5,-42.5 27,-42.5Q33,-42.5 37.85,-39.8Q42.7,-37.1 45.45,-32.3Q48.2,-27.5 48.2,-21.4Q48.2,-15 45.25,-9.9Q42.3,-4.8 37.1,-1.95Q31.9,0.9 25.4,0.9Q19.3,0.9 14.45,-1.8ZM36.2,-9.25Q39.8,-13.9 39.8,-20.6Q39.8,-28 35.85,-32.5Q31.9,-37 25.9,-37Q19.7,-37 16.05,-32.45Q12.4,-27.9 12.4,-21.1Q12.4,-16.2 14.25,-12.45Q16.1,-8.7 19.3,-6.65Q22.5,-4.6 26.5,-4.6Q32.6,-4.6 36.2,-9.25Z"></path><path transform="translate(332 200)" d="M9.2,-40.9L17.1,-42.3L17.1,0.9Q17.1,12.8 13.2,19.65Q9.3,26.5 1.2,28.9L-0.6,25.1Q4.4,22.6 6.8,16.7Q9.2,10.8 9.2,0.9L9.2,-40.9ZM9.25,-54.55Q7.8,-56 7.8,-58.3Q7.8,-60.7 9.25,-62.1Q10.7,-63.5 13.2,-63.5Q15.6,-63.5 17.05,-62.1Q18.5,-60.7 18.5,-58.3Q18.5,-56 17,-54.55Q15.5,-53.1 13.2,-53.1Q10.7,-53.1 9.25,-54.55Z"></path><path transform="translate(358 200)" d="M10.05,-4.5Q4.5,-10 4.5,-19.4Q4.5,-26.2 7.35,-31.45Q10.2,-36.7 15.15,-39.6Q20.1,-42.5 26.2,-42.5Q33.6,-42.5 37.45,-38.2Q41.3,-33.9 41.3,-26.2Q41.3,-23.6 41.1,-22.3L12,-22.3Q11.9,-21.7 11.9,-20.5Q11.9,-13.4 15.85,-9.25Q19.8,-5.1 26.2,-5.1Q32.9,-5.1 38.5,-10.1L41.2,-6Q33.9,1 24.6,1Q15.6,1 10.05,-4.5ZM34.4,-27.2Q34.1,-36.9 25.6,-36.9Q21,-36.9 17.65,-34.3Q14.3,-31.7 12.9,-27.2L34.4,-27.2Z"></path><path transform="translate(404 200)" d="M14.35,-1.8Q9.5,-4.5 6.8,-9.3Q4.1,-14.1 4.1,-20.2Q4.1,-26.5 7.05,-31.6Q10,-36.7 15.15,-39.6Q20.3,-42.5 26.6,-42.5Q34.7,-42.5 40.5,-37.3L37.1,-31.3Q31.7,-36.7 25.6,-36.7Q19.6,-36.7 16,-32.2Q12.4,-27.7 12.4,-21Q12.4,-13.9 16.65,-9.5Q20.9,-5.1 27.3,-5.1Q30.3,-5.1 33.2,-6.35Q36.1,-7.6 38.6,-9.9L41.1,-5.4Q34.7,0.9 25.2,0.9Q19.2,0.9 14.35,-1.8Z"></path><path transform="translate(448 200)" d="M14,-2.7Q10.4,-6.1 10.4,-12.2L10.4,-35.6L2.2,-35.6L2.7,-40.5L10.7,-40.6L13.1,-50.4L18.3,-51.4L18.3,-40.7L34.2,-41L33.8,-35.5L18.3,-35.5L18.3,-13.6Q18.3,-9.4 20.2,-7.3Q22.1,-5.2 25.5,-5.2Q29.9,-5.2 33.9,-8.2L36.2,-4.6Q30.6,0.7 23.3,0.7Q17.6,0.7 14,-2.7Z"></path><path transform="translate(486 200)" d=""></path><path transform="translate(511 200)" d="M10.6,-65.8L49.6,-65.8L49.6,-59L19.1,-59L19.1,-34.5L45.8,-34.5L45.8,-27.7L19.1,-27.7L19.1,-0L10.6,-0L10.6,-65.8Z"></path><path transform="translate(563 200)" d="M14.45,-1.8Q9.6,-4.5 6.85,-9.35Q4.1,-14.2 4.1,-20.2Q4.1,-26.6 7.05,-31.7Q10,-36.8 15.25,-39.65Q20.5,-42.5 27,-42.5Q33,-42.5 37.85,-39.8Q42.7,-37.1 45.45,-32.3Q48.2,-27.5 48.2,-21.4Q48.2,-15 45.25,-9.9Q42.3,-4.8 37.1,-1.95Q31.9,0.9 25.4,0.9Q19.3,0.9 14.45,-1.8ZM36.2,-9.25Q39.8,-13.9 39.8,-20.6Q39.8,-28 35.85,-32.5Q31.9,-37 25.9,-37Q19.7,-37 16.05,-32.45Q12.4,-27.9 12.4,-21.1Q12.4,-16.2 14.25,-12.45Q16.1,-8.7 19.3,-6.65Q22.5,-4.6 26.5,-4.6Q32.6,-4.6 36.2,-9.25Z"></path><path transform="translate(615 200)" d="M7.4,-40.9L13.9,-42.3L15.1,-33.6Q21.2,-42.1 29,-42.1Q33.7,-42.1 36.4,-39.8L33.2,-33.2Q32.1,-34.1 30.35,-34.65Q28.6,-35.2 26.7,-35.2Q20.6,-35.2 15.3,-28.2L15.3,-0L7.4,-0L7.4,-40.9Z"></path><path transform="translate(652 200)" d=""></path><path transform="translate(677 200)" d="M49,-55.6L32.1,-0L23.6,-0L4.5,-65.8L13.4,-65.8L28.7,-10.5L45.2,-65.8L54.2,-65.8L71.3,-10.7L85.9,-65.8L94,-65.8L74.8,-0L66.4,-0L49,-55.6Z"></path><path transform="translate(768 200)" d="M10.05,-4.5Q4.5,-10 4.5,-19.4Q4.5,-26.2 7.35,-31.45Q10.2,-36.7 15.15,-39.6Q20.1,-42.5 26.2,-42.5Q33.6,-42.5 37.45,-38.2Q41.3,-33.9 41.3,-26.2Q41.3,-23.6 41.1,-22.3L12,-22.3Q11.9,-21.7 11.9,-20.5Q11.9,-13.4 15.85,-9.25Q19.8,-5.1 26.2,-5.1Q32.9,-5.1 38.5,-10.1L41.2,-6Q33.9,1 24.6,1Q15.6,1 10.05,-4.5ZM34.4,-27.2Q34.1,-36.9 25.6,-36.9Q21,-36.9 17.65,-34.3Q14.3,-31.7 12.9,-27.2L34.4,-27.2Z"></path><path transform="translate(814 200)" d="M15,-0.75Q10.2,-2.2 8.1,-4.5L8.1,-70.4L15.8,-71.8L15.8,-35.9Q22.4,-42.2 30.7,-42.2Q35.8,-42.2 40,-39.8Q44.2,-37.4 46.65,-32.9Q49.1,-28.4 49.1,-22.3Q49.1,-16.1 46.35,-10.85Q43.6,-5.6 38.15,-2.45Q32.7,0.7 25,0.7Q19.8,0.7 15,-0.75ZM20.85,-5.55Q23.9,-4.5 27.3,-4.5Q33.7,-4.5 37.2,-8.85Q40.7,-13.2 40.7,-19.9Q40.7,-27.5 37.15,-31.9Q33.6,-36.3 27.7,-36.3Q24.5,-36.3 21.4,-34.75Q18.3,-33.2 15.8,-30.1L15.8,-8.6Q17.8,-6.6 20.85,-5.55Z"></path></svg>