<svg  xmlns="http://www.w3.org/2000/svg" xmlns:xlink="http://www.w3.org/1999/xlink" width="801" height="200" viewBox="0 0 825 224"><path transform="translate(0 100)" d="M36.3,12Q33.9,12 32.55,10.55Q31.2,9.1 31.6,7.3Q33.1,3.1 33.6,0.4L39.1,-24.8L18.4,-23.9L18.1,-21.5Q17.5,-18.7 15,-18.7Q13.7,-18.7 11.75,-19.7Q9.8,-20.7 10.4,-23.2L10.5,-24Q11.1,-25.6 11.4,-27L14.6,-51.5Q15,-54.5 14.25,-56.35Q13.5,-58.2 13.7,-59.1Q14,-60.4 16,-60.4Q17.5,-60.4 22.3,-58.3L46.7,-59.8L50.4,-76.4Q50.8,-78.4 50.35,-79.85Q49.9,-81.3 50.1,-82.1Q50.4,-83.4 51.8,-83.4Q52.6,-83.4 54.2,-83.1Q59.4,-82.1 58.7,-78.8L54.6,-60.2L83.6,-61.9Q87.5,-61.9 88,-58.8Q88.2,-57.7 88.1,-57.1Q87.9,-56.3 87.35,-55.65Q86.8,-55 79.3,-33.1Q81.4,-29.9 81.1,-28.6Q80.8,-27 79.35,-26.75Q77.9,-26.5 47,-25.1L39.5,8.9Q38.9,12 36.3,12ZM48.4,-32.1L72,-33.2L78.7,-54.6L53.1,-53.1L48.4,-32.1ZM19.3,-30.8L40.7,-31.8L45.2,-52.7L21.9,-51.3L19.3,-30.8Z"></path><path transform="translate(100 100)" d="M76,9.4Q75.4,9.4 74.9,9.1Q56.1,-0.8 42.5,-17.7Q28.8,-6 11.7,1.9Q4.5,5.3 -0.4,6.95Q-5.3,8.6 -6.7,8.6Q-8.6,8.6 -8.35,7.3Q-8.1,6 -5.6,4.9Q22.9,-8.9 38.4,-23.1Q31.5,-33.8 26.3,-52.9L18.1,-52.4Q16.1,-52.2 14.5,-52.2Q12.8,-52.2 11.6,-52.8Q9.9,-53.7 9.2,-56.8Q9.2,-57.3 9.1,-57.65Q9,-58 9.1,-58.5Q9.3,-59.8 10.8,-59.8Q13.2,-59.3 15.8,-59.3Q17.1,-59.3 47,-61.1L49.4,-73Q49.9,-75.1 49.35,-76.25Q48.8,-77.4 49,-78.3Q49.2,-79.6 51.7,-79.6Q53.6,-79.6 56.05,-78.7Q58.5,-77.8 58.1,-76.1L54.9,-61.5Q85.9,-63.4 87.25,-63.75Q88.6,-64.1 89.6,-64.1Q90.7,-64.1 91.95,-63.05Q93.2,-62 94,-60.8Q94.8,-59.6 94.6,-58.8Q94.2,-56.9 91.7,-56.6L73.5,-55.5Q68.7,-47.3 61.9,-38.55Q55.1,-29.8 48.7,-23.5Q62.9,-6.5 82.4,2Q84.1,2.7 83.9,3.6Q83.7,4.4 82.3,5.9Q78.6,9.4 76,9.4ZM44.6,-28.9Q56.2,-40.8 64,-55L34.4,-53.4Q38.5,-38 44.6,-28.9Z"></path><path transform="translate(200 100)" d="M67.3,9.7Q63,9.7 55.6,1.8Q51.7,-2.5 52,-4.2Q52.3,-5.5 53.8,-5.5Q54.8,-5.5 59,-3.25Q63.2,-1 66.5,-0.2L81.3,-67.2L23.3,-63.6L8.5,6Q7.8,9.3 5.2,9.3Q5,9.3 3.7,8.9Q2.4,8.5 1.3,7.3Q0.2,6.1 0.6,4.4Q0.9,3 1.6,1.35Q2.3,-0.3 15.9,-63.9Q16.7,-67.5 16.15,-68.85Q15.6,-70.2 15.9,-71.3Q16.2,-72.7 18.3,-72.7Q19.8,-72.7 24.6,-70.4L84.5,-74.2Q90.9,-74.2 90,-69.8L89.1,-67.9L73.8,0.4L73.4,4.1Q72.9,6.2 71,7.95Q69.1,9.7 67.3,9.7ZM31.9,-0.4Q30.3,-0.4 30.6,-1.8Q30.9,-3.1 32.8,-5.1Q45.3,-17.4 54.8,-35.7Q50.9,-43.3 48.85,-46.4Q46.8,-49.5 47,-50.4Q47.2,-51.3 48.8,-52.5Q50.4,-53.7 51.2,-53.7Q52,-53.7 53.35,-52.35Q54.7,-51 58.8,-43.8Q62.2,-51.4 64.5,-59.1Q64.8,-60.7 64.7,-61.45Q64.6,-62.2 64.8,-62.8Q65,-63.9 66.2,-63.9Q66.8,-63.9 68.2,-63.5Q72.6,-62.2 72.1,-59.7Q71.4,-56.5 68.4,-49.4Q65.4,-42.3 62.5,-37.1Q70.1,-22.9 69.6,-20.8Q69.4,-19.5 67.6,-18.15Q65.8,-16.8 64.5,-16.8Q63.1,-16.8 62.3,-19Q61.4,-22 58,-29.3Q53,-21.2 47.4,-14.5Q41.8,-7.8 37.5,-4.1Q33.2,-0.4 31.9,-0.4ZM13.4,-6.6Q11.9,-6.6 12.2,-8.1Q12.5,-9.2 13.9,-10.9Q22.6,-20.6 30.6,-34.5Q27.6,-41.6 24.2,-47.1Q24,-47.6 23.8,-48.05Q23.6,-48.5 23.8,-49.4Q24,-50.3 25.65,-51.35Q27.3,-52.4 28.1,-52.4Q30,-52.4 34.7,-42.3Q38.3,-49.3 41.1,-57.7Q41.4,-59.1 41.3,-60.05Q41.2,-61 41.3,-61.3Q41.5,-62.6 43.1,-62.6Q44.1,-62.6 45.4,-62.2Q49,-61 48.3,-57.9Q44.2,-46.5 37.9,-35.5Q43.8,-22.7 43.5,-21.2Q43.2,-19.5 41.35,-18.2Q39.5,-16.9 38.3,-16.9Q36.9,-16.9 36.2,-19.3Q34.9,-23.5 33.2,-28Q26,-17 18,-9.8Q14.5,-6.6 13.4,-6.6Z"></path><path transform="translate(300 100)" d="M11.9,-44.6Q11.5,-44.6 10.4,-45Q7.2,-46.5 7.7,-48.6Q7.7,-49 11.75,-54.5Q15.8,-60 21.3,-70.1Q22.6,-72.5 24.4,-72.5Q25.1,-72.5 26.2,-72.2Q28.7,-71.1 28.4,-69.4Q28.2,-68.8 27.3,-67L48.8,-68.2L50.3,-75.6Q50.7,-77.3 50,-78.75Q49.3,-80.2 49.4,-80.8Q49.7,-82.2 51.6,-82.2Q52.9,-82.2 54.8,-81.7Q59.2,-80.5 58.7,-78.2L56.5,-68.6L89.9,-70.5Q93,-70.5 94.25,-69.15Q95.5,-67.8 95.3,-66.6Q95,-65.3 94.1,-64.65Q93.2,-64 92.9,-63.6Q92.6,-63.2 91.3,-61.7Q79.8,-48.5 76.9,-48.5Q75.5,-48.5 75.9,-50.1Q76.1,-51.2 78.9,-54.75Q81.7,-58.3 84.5,-63.5L23.4,-60.2Q14.1,-44.6 11.9,-44.6ZM36.4,10.7Q35.2,10.7 31.45,8.55Q27.7,6.4 22.75,1.65Q17.8,-3.1 18.1,-4.7Q18.4,-5.8 19.8,-5.8Q20.7,-5.8 22.5,-4.8Q28.9,-1.2 32.9,0.2Q36.9,1.6 37.1,1.6Q37,1.6 37,1.3Q37.2,0.8 37.95,-1.3Q38.7,-3.4 40.1,-9.6Q41.3,-15.6 41.6,-20.9L4.4,-19.4Q2.1,-19.4 1.4,-20.6Q-0.5,-24.3 -0.3,-25.4Q0,-26.9 1,-26.9Q1.5,-26.9 2.6,-26.55Q3.7,-26.2 5.9,-26.2L41.3,-27.8Q41.1,-30.9 40.4,-33.25Q39.7,-35.6 39.9,-36.7Q40.2,-38 41.7,-38.75Q43.2,-39.5 44.8,-39.5Q46.5,-39.5 47.2,-37.3Q56.8,-43 60.7,-46.7Q29.6,-44.2 28.5,-44.2Q26.6,-44.2 25.5,-45.6Q24.4,-47 24.05,-48.5Q23.7,-50 23.8,-50.5Q24,-51.8 25.3,-51.8L29.1,-51.2Q31,-51.2 49,-52.6Q67,-54 67.4,-54Q71.2,-54 72.7,-51.2Q73.4,-50 73.1,-49Q72.9,-47.9 71.65,-47.1Q70.4,-46.3 69.8,-45.9Q58.6,-36.6 48.7,-30.9L49,-28.1L78,-29.4Q81.1,-29.7 82.15,-30.05Q83.2,-30.4 83.8,-30.4Q84.5,-30.4 85.8,-29.5Q89.3,-26.9 88.9,-24.8Q88.5,-23 85.3,-22.8L49.1,-21.2Q48.9,-15.8 47.1,-7.5Q43.2,10.7 36.4,10.7Z"></path><path transform="translate(400 100)" d="M33.8,-56Q32.3,-56 30.8,-58.7Q26.8,-65.7 21.8,-71.1Q20.7,-72.3 20.9,-73.3Q21.1,-74.1 22.4,-75.5Q23.7,-76.9 25.1,-76.9Q26.3,-76.9 27.95,-75.4Q29.6,-73.9 31.65,-71.7Q33.7,-69.5 35.5,-67.2Q37.3,-64.9 38.55,-63.05Q39.8,-61.2 39.6,-60.1Q39.3,-58.9 37.25,-57.45Q35.2,-56 33.8,-56ZM54.3,10.4Q54,10.4 52.65,9.9Q51.3,9.4 50.15,8.2Q49,7 49.4,5.5Q49.6,4.2 50.45,2.4Q51.3,0.6 51.9,-2.1L60.5,-42.4L45.8,-41.6Q45.2,-41.5 44,-41.5Q40.6,-41.5 38.85,-42.85Q37.1,-44.2 37.4,-48.3Q37.6,-49.4 38.5,-49.4Q38.8,-49.4 39.75,-48.95Q40.7,-48.5 43,-48.5Q44.3,-48.5 62,-49.4L67.4,-74.9Q68,-77.6 67.1,-78.8Q66.6,-79.5 66.8,-80.2Q67.1,-81.6 69.1,-81.6Q70.5,-81.6 72.55,-80.9Q74.6,-80.2 75.15,-79.5Q75.7,-78.8 75.4,-77.3L69.5,-49.8L84.5,-50.6Q87.8,-50.9 88.8,-51.25Q89.8,-51.6 90.3,-51.6Q90.9,-51.6 92.1,-50.6Q95.2,-47.8 94.8,-45.9Q94.4,-44.3 91.6,-44L68,-42.7L57.4,7.2Q56.7,10.4 54.3,10.4ZM12.4,0.6L11.9,0.6Q10.7,0.6 9.15,-0.45Q7.6,-1.5 6.5,-2.95Q5.4,-4.4 5.5,-5.3Q5.7,-6.3 7.9,-6.7Q10.1,-7.1 12.8,-8L21.3,-41.7Q9.3,-40.6 8.1,-40.6Q5.1,-40.6 3.6,-42.7Q2.1,-44.8 2.4,-46Q2.7,-47.6 4,-47.6Q6.6,-47.2 8.2,-47.2L27,-49.1Q28,-49.1 29.6,-47.9Q31.2,-46.7 30.9,-45.4Q30.6,-44 29.5,-43.3L28.9,-42.7L21,-11.7Q22.1,-12.3 28.55,-16.35Q35,-20.4 36.7,-20.4Q38.2,-20.4 37.9,-19.2Q37.7,-18.4 35.45,-16.45Q33.2,-14.5 26.35,-8.5Q19.5,-2.5 16.55,-1Q13.6,0.5 12.4,0.6Z"></path><path transform="translate(500 100)" d="M47.3,-58.2Q46.1,-58.2 44.25,-61.85Q42.4,-65.5 37.7,-70.7Q36.4,-72 36.65,-73.2Q36.9,-74.4 38.55,-75.55Q40.2,-76.7 41.1,-76.7Q41.9,-76.7 44.1,-74.7Q46.3,-72.7 49.55,-68.3Q52.8,-63.9 52.5,-62.5Q52.2,-60.9 50.3,-59.55Q48.4,-58.2 47.3,-58.2ZM39.8,8.1Q38,8.1 35.15,6.45Q32.3,4.8 29.4,0.6Q26.5,-3.6 24.5,-10.5Q16.4,-3.5 5.7,2.6Q-4,8 -6,8Q-7.4,8 -7.1,6.9Q-6.9,5.7 -5,4.4Q12.4,-7.1 22.7,-16.8Q20.3,-25.7 20.7,-43.2Q11.1,-41.7 10,-41.7Q7.3,-41.7 6,-46L6,-46.7Q6.2,-48.1 7.8,-48.1L8.5,-48.1Q10.7,-48.1 21.1,-49.7Q21.6,-59.7 23.9,-72.4Q24.4,-75 22.8,-76.4Q22.1,-76.9 22.2,-77.7Q22.5,-78.8 25.7,-78.9Q32.3,-78.9 31.5,-75.3Q29.1,-61.4 28.2,-50.8Q50.8,-54.5 51.9,-54.95Q53,-55.4 54,-55.5Q54.9,-55.5 55.9,-54.6Q58.2,-52.5 57.9,-51.2Q57.5,-49.1 54.3,-48.7L27.8,-44.3Q27.6,-35 29.2,-23.5Q34.5,-29 37.8,-33.8Q41.1,-38.6 41.4,-40L41.8,-41.7Q42.3,-43.8 44,-44Q44.6,-44 45.9,-43.1Q49.6,-40.8 49,-37.9Q48.7,-37.1 46.1,-33.7Q39.1,-24.3 30.6,-16.1Q33.2,-7 39.3,-0.8Q39.4,-0.7 39.6,-0.7Q41.1,-0.7 47.9,-15.9Q49.6,-20.5 51.6,-20.5Q53.6,-20.5 52.7,-16.4Q49.9,-5.8 45.9,2.3Q44.7,4.9 43.25,6.5Q41.8,8.1 39.8,8.1ZM60.6,-12.3Q58.3,-12.3 57,-13.8Q55.7,-15.3 56,-17Q56.2,-17.9 56.8,-19.15Q57.4,-20.4 65.4,-56.9Q65.9,-59.1 65.1,-61.1Q64.9,-61.9 65,-62.3Q65.3,-63.7 67.1,-63.7Q68.3,-63.7 70.35,-62.9Q72.4,-62.1 72.8,-61.3Q73.2,-60.5 72.9,-59.2L63.4,-15Q62.8,-12.3 60.6,-12.3ZM71,11.2Q69.3,11.2 67.45,9.85Q65.6,8.5 63.45,6.55Q61.3,4.6 59.6,2.45Q57.9,0.3 56.7,-1.45Q55.5,-3.2 55.7,-4Q55.9,-5.2 57.4,-5.2Q58.4,-5.2 62.45,-2.85Q66.5,-0.5 70.5,1.2L86.6,-74.8Q87,-76.8 86.35,-78.2Q85.7,-79.6 85.9,-80.5Q86.2,-81.7 88.2,-81.7Q89.6,-81.7 91.8,-80.8Q94,-79.9 94.55,-79.15Q95.1,-78.4 94.8,-77.1Q78,1.9 77.5,5.3Q77.1,7.3 74.95,9.25Q72.8,11.2 71,11.2Z"></path><path transform="translate(0 200)" d="M36.4,-59.1L11.6,-59.1L13.1,-65.8L68.5,-65.8L67.1,-59.1L44.8,-59.1L32,-0L23.6,-0L36.4,-59.1Z"></path><path transform="translate(61 200)" d="M32.95,-0.75Q31.5,-2.1 31.5,-4.7Q31.5,-6.2 31.9,-7.7L37,-28.1Q37.5,-30.1 37.5,-31.4Q37.5,-35.9 33.4,-35.9Q29.1,-35.9 24.45,-31.1Q19.8,-26.3 15.95,-18.1Q12.1,-9.9 10.1,-0L3.1,-0L18.8,-71.1L25.9,-71.1L16.1,-27.3Q20.8,-34.4 26.2,-38.25Q31.6,-42.1 36.7,-42.1Q40.5,-42.1 42.75,-40Q45,-37.9 45,-33.8Q45,-31.4 44.3,-28.9L39.2,-9.7Q38.9,-8.5 38.9,-7.7Q38.9,-5.7 40.8,-5.7Q43,-5.7 47.2,-9.7L49.7,-6.6Q42.8,0.6 37,0.6Q34.4,0.6 32.95,-0.75Z"></path><path transform="translate(113 200)" d="M7.15,-2.95Q3.3,-6.9 3.3,-13.7Q3.3,-16.2 3.9,-19.2Q5.3,-25.4 9.15,-30.75Q13,-36.1 18.4,-39.3Q23.8,-42.5 29.6,-42.5Q34.4,-42.5 36.75,-40.3Q39.1,-38.1 39.1,-34.6Q39.1,-27.1 31.35,-22.65Q23.6,-18.2 10.6,-16.4Q10.5,-15.7 10.5,-14.4Q10.5,-9.8 12.65,-7.3Q14.8,-4.8 19.1,-4.8Q21.8,-4.8 24.8,-5.95Q27.8,-7.1 30.6,-9.4L33.2,-5.5Q29.7,-2.3 25.7,-0.65Q21.7,1 17.6,1Q11,1 7.15,-2.95ZM26.6,-25.9Q32.2,-29.1 32.2,-32.9Q32.2,-34.6 31.05,-35.85Q29.9,-37.1 27.2,-37.1Q21.9,-37.1 17.7,-32.4Q13.5,-27.7 11.5,-21Q21,-22.7 26.6,-25.9Z"></path><path transform="translate(153 200)" d=""></path><path transform="translate(175 200)" d="M19.4,-23.5L14.3,-0L6.3,-0L20.6,-65.8L37,-65.8Q43.6,-65.8 48.25,-63.35Q52.9,-60.9 55.25,-56.8Q57.6,-52.7 57.6,-47.8Q57.6,-46.1 57.3,-44.1Q56.4,-38.8 52.9,-33.95Q49.4,-29.1 43.15,-26Q36.9,-22.9 28.3,-22.9Q24.1,-22.9 19.4,-23.5ZM29.7,-29.7Q36,-29.7 40.5,-32.1Q45,-34.5 47.3,-38.3Q49.6,-42.1 49.6,-46.2Q49.6,-51.6 45.75,-55.35Q41.9,-59.1 34.5,-59.1L27.1,-59.1L20.9,-30.3Q25.7,-29.7 29.7,-29.7Z"></path><path transform="translate(231 200)" d="M12.5,-41.6L19.3,-41.6L15.8,-26.5Q20,-33.9 24.85,-38Q29.7,-42.1 34.2,-42.1Q36.4,-42.1 38.45,-41.35Q40.5,-40.6 41.6,-39L37.4,-32Q36.3,-33.4 34.5,-34.2Q32.7,-35 31.2,-35Q27.9,-35 23.65,-30.65Q19.4,-26.3 15.65,-18.3Q11.9,-10.3 10,-0L3,-0L12.5,-41.6Z"></path><path transform="translate(269 200)" d="M6.9,-3.15Q3.3,-7.2 3.3,-13.8Q3.3,-16.4 3.9,-19.2Q5.2,-25.7 8.75,-31.05Q12.3,-36.4 17.45,-39.45Q22.6,-42.5 28.3,-42.5Q34.8,-42.5 38.45,-38.6Q42.1,-34.7 42.1,-28.1Q42.1,-25.5 41.5,-22.5Q40.2,-16.1 36.65,-10.75Q33.1,-5.4 28,-2.25Q22.9,0.9 17.1,0.9Q10.5,0.9 6.9,-3.15ZM28.35,-9.65Q32.4,-14.7 33.8,-22Q34.3,-24.3 34.3,-27.1Q34.3,-31.6 32.35,-34.25Q30.4,-36.9 26.6,-36.9Q21.5,-36.9 17.3,-32.15Q13.1,-27.4 11.6,-19.7Q11.1,-17.3 11.1,-14.5Q11.1,-9.9 13.1,-7.25Q15.1,-4.6 18.9,-4.6Q24.3,-4.6 28.35,-9.65Z"></path><path transform="translate(314 200)" d="M12.9,-41.6L20.1,-41.6L11,1.2Q8.6,12.9 2.95,19.7Q-2.7,26.5 -11.5,29L-12.9,25.4Q-0.1,19.6 4,0.5L12.9,-41.6ZM15.85,-54.25Q14.6,-55.5 14.6,-57.6Q14.6,-60.1 16.2,-61.8Q17.8,-63.5 20.3,-63.5Q22.4,-63.5 23.7,-62.2Q25,-60.9 25,-58.8Q25,-56.2 23.35,-54.6Q21.7,-53 19.3,-53Q17.1,-53 15.85,-54.25Z"></path><path transform="translate(337 200)" d="M7.15,-2.95Q3.3,-6.9 3.3,-13.7Q3.3,-16.2 3.9,-19.2Q5.3,-25.4 9.15,-30.75Q13,-36.1 18.4,-39.3Q23.8,-42.5 29.6,-42.5Q34.4,-42.5 36.75,-40.3Q39.1,-38.1 39.1,-34.6Q39.1,-27.1 31.35,-22.65Q23.6,-18.2 10.6,-16.4Q10.5,-15.7 10.5,-14.4Q10.5,-9.8 12.65,-7.3Q14.8,-4.8 19.1,-4.8Q21.8,-4.8 24.8,-5.95Q27.8,-7.1 30.6,-9.4L33.2,-5.5Q29.7,-2.3 25.7,-0.65Q21.7,1 17.6,1Q11,1 7.15,-2.95ZM26.6,-25.9Q32.2,-29.1 32.2,-32.9Q32.2,-34.6 31.05,-35.85Q29.9,-37.1 27.2,-37.1Q21.9,-37.1 17.7,-32.4Q13.5,-27.7 11.5,-21Q21,-22.7 26.6,-25.9Z"></path><path transform="translate(377 200)" d="M7.1,-3.05Q3.3,-7 3.3,-13.8Q3.3,-16.4 3.9,-19.2Q5.2,-25.6 8.85,-30.95Q12.5,-36.3 17.7,-39.4Q22.9,-42.5 28.6,-42.5Q35.3,-42.5 38.4,-38.1L33.3,-33.3Q30.8,-36.5 26.6,-36.5Q21.1,-36.5 17,-31.65Q12.9,-26.8 11.4,-19.7Q10.8,-17 10.8,-14.6Q10.8,-10 12.95,-7.4Q15.1,-4.8 19,-4.8Q21.9,-4.8 24.7,-6Q27.5,-7.2 29.7,-9.2L32.6,-5.5Q29.4,-2.5 25.4,-0.8Q21.4,0.9 17.3,0.9Q10.9,0.9 7.1,-3.05Z"></path><path transform="translate(414 200)" d="M9.2,-1.55Q6.9,-3.9 6.9,-8.1Q6.9,-10.4 7.4,-12.4L13,-35.7L5,-35.8L6.1,-40.4L14.3,-40.5L17.3,-50.1L23.6,-51.4L21.1,-40.7L35.3,-40.9L34,-35.4L19.9,-35.6L14.7,-13.1Q14.2,-10.8 14.2,-9.5Q14.2,-5.1 18,-5.1Q21.9,-5.1 27.4,-9.7L30.1,-6.7Q26.4,-3 22.6,-1.1Q18.8,0.8 15.4,0.8Q11.5,0.8 9.2,-1.55Z"></path><path transform="translate(449 200)" d=""></path><path transform="translate(471 200)" d="M20.6,-65.8L57.9,-65.8L56.5,-59L27.2,-59L22.1,-35.3L47.7,-35.3L46.3,-28.5L20.6,-28.5L14.4,-0L6.3,-0L20.6,-65.8Z"></path><path transform="translate(521 200)" d="M6.9,-3.15Q3.3,-7.2 3.3,-13.8Q3.3,-16.4 3.9,-19.2Q5.2,-25.7 8.75,-31.05Q12.3,-36.4 17.45,-39.45Q22.6,-42.5 28.3,-42.5Q34.8,-42.5 38.45,-38.6Q42.1,-34.7 42.1,-28.1Q42.1,-25.5 41.5,-22.5Q40.2,-16.1 36.65,-10.75Q33.1,-5.4 28,-2.25Q22.9,0.9 17.1,0.9Q10.5,0.9 6.9,-3.15ZM28.35,-9.65Q32.4,-14.7 33.8,-22Q34.3,-24.3 34.3,-27.1Q34.3,-31.6 32.35,-34.25Q30.4,-36.9 26.6,-36.9Q21.5,-36.9 17.3,-32.15Q13.1,-27.4 11.6,-19.7Q11.1,-17.3 11.1,-14.5Q11.1,-9.9 13.1,-7.25Q15.1,-4.6 18.9,-4.6Q24.3,-4.6 28.35,-9.65Z"></path><path transform="translate(566 200)" d="M12.5,-41.6L19.3,-41.6L15.8,-26.5Q20,-33.9 24.85,-38Q29.7,-42.1 34.2,-42.1Q36.4,-42.1 38.45,-41.35Q40.5,-40.6 41.6,-39L37.4,-32Q36.3,-33.4 34.5,-34.2Q32.7,-35 31.2,-35Q27.9,-35 23.65,-30.65Q19.4,-26.3 15.65,-18.3Q11.9,-10.3 10,-0L3,-0L12.5,-41.6Z"></path><path transform="translate(605 200)" d=""></path><path transform="translate(627 200)" d="M53.7,-55.5L27.2,-0L18.5,-0L13.9,-65.8L22.5,-65.8L25.4,-9.8L52,-65.8L60.7,-65.8L63.8,-9L90.6,-65.8L99,-65.8L65.8,-0L57,-0L53.7,-55.5Z"></path><path transform="translate(713 200)" d="M7.15,-2.95Q3.3,-6.9 3.3,-13.7Q3.3,-16.2 3.9,-19.2Q5.3,-25.4 9.15,-30.75Q13,-36.1 18.4,-39.3Q23.8,-42.5 29.6,-42.5Q34.4,-42.5 36.75,-40.3Q39.1,-38.1 39.1,-34.6Q39.1,-27.1 31.35,-22.65Q23.6,-18.2 10.6,-16.4Q10.5,-15.7 10.5,-14.4Q10.5,-9.8 12.65,-7.3Q14.8,-4.8 19.1,-4.8Q21.8,-4.8 24.8,-5.95Q27.8,-7.1 30.6,-9.4L33.2,-5.5Q29.7,-2.3 25.7,-0.65Q21.7,1 17.6,1Q11,1 7.15,-2.95ZM26.6,-25.9Q32.2,-29.1 32.2,-32.9Q32.2,-34.6 31.05,-35.85Q29.9,-37.1 27.2,-37.1Q21.9,-37.1 17.7,-32.4Q13.5,-27.7 11.5,-21Q21,-22.7 26.6,-25.9Z"></path><path transform="translate(753 200)" d="M8.5,-2.3Q5.1,-5.6 5.1,-10.9Q5.1,-13 5.5,-14.7L17.8,-71.1L24.9,-71.1L15.7,-29.9Q19.6,-35.4 25.05,-38.75Q30.5,-42.1 35.6,-42.1Q40.5,-42.1 42.95,-38.95Q45.4,-35.8 45.4,-30.5Q45.4,-27.2 44.5,-23.4Q42.7,-16.4 38.65,-10.85Q34.6,-5.3 29.15,-2.15Q23.7,1 17.8,1Q11.9,1 8.5,-2.3ZM12.2,-12.5Q12.2,-8.9 14.3,-6.9Q16.4,-4.9 20,-4.9Q25.4,-4.9 29.9,-9.4Q34.4,-13.9 36.4,-21.4Q37.4,-25.4 37.4,-28.3Q37.4,-31.6 36.05,-33.6Q34.7,-35.6 31.9,-35.6Q28.5,-35.6 24.45,-33.05Q20.4,-30.5 17.2,-26.25Q14,-22 12.9,-17.2L12.6,-15.7Q12.2,-14.1 12.2,-12.5Z"></path></svg>