<svg  xmlns="http://www.w3.org/2000/svg" xmlns:xlink="http://www.w3.org/1999/xlink" width="862" height="200" viewBox="0 0 886 224"><path transform="translate(0 100)" d="M21.3,-57.2L21.5,-57.2L46.3,-58.7L46.8,-58.7L46.8,-59.2L46.9,-76.4Q46.9,-78.6 46.15,-80.05Q45.4,-81.5 45.4,-81.9Q45.4,-82.3 45.9,-82.3Q46.4,-82.3 48,-82Q52.5,-81.2 52.5,-78.8L52.4,-59.6L52.4,-59.1L52.9,-59.1L79.9,-60.7L80,-60.7Q80.6,-60.8 81.2,-60.8L82.1,-60.8Q85.3,-60.8 86.1,-58.4Q86.5,-57.5 86.5,-57.05Q86.5,-56.6 86.1,-56Q85.7,-55.4 85.6,-54.6L82.8,-33L82.8,-32.7L82.9,-32.6Q85.6,-29.5 85.6,-28.7Q85.6,-27.9 84.8,-27.75Q84,-27.6 82.7,-27.5L52.7,-26.2L52.2,-26.2L52.2,-25.7L52,8.9Q52,10.9 50.5,10.9Q48.5,10.9 47.2,9.75Q45.9,8.6 45.9,7.3Q46.5,3.1 46.5,0.4L46.6,-25.4L46.6,-25.9L46.1,-25.9L24.3,-25L23.7,-25L23.8,-24.5L24.1,-21.5L24.1,-21.2Q24.1,-19.8 22.7,-19.8Q21.6,-19.8 19.9,-20.6Q18.2,-21.4 18.2,-23.2L18.2,-24Q18.4,-25.6 18.4,-26.95Q18.4,-28.3 18.2,-29.8L16.4,-51.5Q16.2,-54.9 15.05,-56.7Q13.9,-58.5 13.9,-59.1L14.5,-59.3L14.8,-59.3Q16.1,-59.3 21.3,-57.2ZM18.2,-29.8L18.2,-29.7L18.2,-29.8ZM24.1,-21.5L24.1,-21.5ZM79.5,-55.7L52.9,-54.2L52.4,-54.2L52.4,-53.7L52.2,-31.5L52.2,-31L52.7,-31L77.1,-32.1L77.6,-32.1L77.6,-32.5L80,-55.1L80.1,-55.7L79.5,-55.7ZM46.3,-53.8L22,-52.4L21.5,-52.4L21.5,-51.9L23.4,-30.2L23.4,-29.7L23.9,-29.7L46.2,-30.7L46.7,-30.7L46.7,-31.2L46.8,-53.3L46.8,-53.8L46.3,-53.8Z"></path><path transform="translate(100 100)" d="M9.6,-58.7Q12.1,-58.2 14.8,-58.2L16.1,-58.2L46.2,-60L46.7,-60L46.7,-60.5L46.6,-73Q46.6,-75.5 45.8,-76.6Q45,-77.7 45,-78.3Q45.3,-78.5 46.7,-78.5Q48.1,-78.5 50.25,-77.75Q52.4,-77 52.4,-76.1L52.3,-60.9L52.3,-60.4L52.8,-60.4L81.3,-62.1Q84.7,-62.4 85.75,-62.7Q86.8,-63 87.55,-63Q88.3,-63 89.6,-62.1Q90.9,-61.2 91.75,-60.2Q92.6,-59.2 92.6,-58.8Q92.6,-57.9 91.2,-57.7L72.9,-56.6L72.5,-56.6Q70.1,-49.4 64.75,-39.9Q59.4,-30.4 54.1,-23.7L53.8,-23.4L54.2,-23Q72.5,-5.6 94,3.1Q95,3.4 95.1,3.7Q95.1,4.1 94.2,5.2Q91.7,8.3 89.6,8.3Q89.2,8.3 88.9,8.2Q68.1,-1.7 50.7,-19L50.3,-19.3L49.9,-18.9Q34,-2.3 12.3,5.9Q7.9,7.5 6.9,7.5Q5.9,7.5 5.9,7.3Q5.9,6.7 7.5,5.8Q33.2,-7.9 46.3,-22.8L46.6,-23.1L46.3,-23.4Q36.8,-34.4 27.4,-53.7L27.3,-54L27,-54L18.4,-53.5L18.3,-53.5Q16.6,-53.3 15.1,-53.3Q13.6,-53.3 12.3,-53.9Q11,-54.5 9.8,-57.2Q9.6,-57.7 9.45,-57.95Q9.3,-58.2 9.3,-58.45Q9.3,-58.7 9.6,-58.7ZM91.2,-57.7L91.1,-57.7L91.2,-57.7ZM33.2,-53.7Q41.1,-37.4 49.6,-27.7L50,-27.2Q59.6,-39.2 65.3,-55.5L65.5,-56.2L64.8,-56.2L33.7,-54.4L32.9,-54.4L33.2,-53.7Z"></path><path transform="translate(200 100)" d="M21,-69.3L21.2,-69.3L80.4,-73.1L81.7,-73.1Q83.6,-73.1 84.65,-72.1Q85.7,-71.1 85.7,-70L85.2,-68.1L85.2,-68L84.5,0.4L84.8,4.1Q84.8,5.8 83.55,7.2Q82.3,8.6 80.9,8.6Q78.3,8.6 73.45,5Q68.6,1.4 65.1,-2.3Q63.9,-3.7 63.9,-4.2Q63.9,-4.4 64.5,-4.4Q65.1,-4.4 70.3,-1.9Q75.5,0.6 79.2,1.2L79.2,0.6L79.8,-67.8L79.8,-68.3L79.3,-68.3L20.9,-64.7L20.4,-64.7L20.4,6Q20.4,8.2 18.9,8.2Q18.7,8.2 17.55,7.85Q16.4,7.5 15.35,6.55Q14.3,5.6 14.3,4.4Q14.3,3.2 14.6,1.5Q15,-0.2 15,-3.2L15.1,-63.9Q15.1,-67.8 14.3,-69.15Q13.5,-70.5 13.5,-71.2Q13.5,-71.6 14.65,-71.6Q15.8,-71.6 21,-69.3ZM80.4,-73.1L80.4,-73.1ZM84.8,4.1L84.8,4.1ZM62,-42.4Q64.1,-51.2 64.7,-58.7L64.7,-59.5Q64.7,-60.9 64.45,-61.6Q64.2,-62.3 64.2,-62.8Q64.7,-62.8 66.1,-62.4Q70,-61.3 70,-59.7Q70,-56.7 68.6,-50.05Q67.2,-43.4 65,-36.9L66.7,-34.7Q75.8,-22.5 75.8,-20.8Q75.8,-20 74.65,-18.95Q73.5,-17.9 72.65,-17.9Q71.8,-17.9 70.8,-19.5Q69.3,-22.6 63.7,-30.9L63.2,-31.7L62.8,-30.8Q59.3,-21.7 55.1,-15.1Q50.9,-8.5 47.6,-5Q44.3,-1.5 43.65,-1.5Q43,-1.5 43,-1.8Q43,-2.7 44.3,-4.4Q54.2,-16.9 60.1,-35.7L60.2,-35.9L60,-36.1Q54.3,-44 51.75,-46.85Q49.2,-49.7 49.15,-50.25Q49.1,-50.8 50.1,-51.8Q51.1,-52.6 51.5,-52.6Q51.9,-52.6 53.3,-51.5Q54.7,-50.2 61.1,-42.2L61.7,-41.4L62,-42.4ZM50.1,-51.8L50.2,-51.8L50.1,-51.8ZM41.6,-57.4L41.6,-57.9Q41.6,-59.3 41.3,-60.15Q41,-61 41,-61.25Q41,-61.5 41.65,-61.5Q42.3,-61.5 43.6,-61.1Q46.6,-60.2 46.6,-58.3L46.6,-57.9Q44.9,-46.7 40.8,-35.6L40.7,-35.3L40.9,-35.1Q49.5,-22.5 49.55,-21.25Q49.6,-20 48.4,-19Q47.2,-18 46.45,-18Q45.7,-18 44.7,-19.8Q41.5,-26 38.7,-30.4L38.3,-29.5Q33.2,-17.6 26.8,-10.5Q24.3,-7.7 23.8,-7.7Q23.3,-7.7 23.3,-8.3Q23.3,-8.9 24.2,-10.3Q30.8,-20.1 36.1,-34.4L36.2,-34.7L36,-34.9Q31.3,-42.2 26.8,-47.7Q26.5,-48.2 26.3,-48.5Q26.1,-48.8 26.1,-49.25Q26.1,-49.7 27.1,-50.5Q28.1,-51.3 28.5,-51.3Q30,-51.3 37.2,-40.6L37.8,-39.8L38.1,-40.8Q40.6,-49.1 41.6,-57.4Z"></path><path transform="translate(300 100)" d="M21.4,-61Q16.2,-47.3 14.6,-46L14.1,-45.7Q13.8,-45.7 12.9,-46.1Q10.2,-47.2 10.1,-48.5Q10.4,-49.3 13.1,-54.45Q15.8,-59.6 19.2,-69.7Q19.7,-71.4 20.7,-71.4Q21.2,-71.4 22.7,-70.85Q24.2,-70.3 24.2,-69.4Q24.2,-69.2 24,-68.4L23.3,-66.5L23.1,-65.8L23.8,-65.8L46.6,-67.1L47.1,-67.1L47.1,-67.6L47,-75.6Q47,-77.7 46.05,-79.1Q45.1,-80.5 45,-80.8Q45,-81.1 45.95,-81.1Q46.9,-81.1 49.8,-80.35Q52.7,-79.6 52.7,-78.2L52.5,-68L52.5,-67.5L53,-67.5L86.6,-69.4L87.5,-69.4Q89.3,-69.4 90.5,-68.35Q91.7,-67.3 91.7,-66.55Q91.7,-65.8 91.05,-65.25Q90.4,-64.7 90.15,-64.25Q89.9,-63.8 87.4,-59.95Q84.9,-56.1 82.1,-52.85Q79.3,-49.6 78.3,-49.6Q78,-49.6 78,-50.25Q78,-50.9 80.4,-55.05Q82.8,-59.2 84.3,-64.6L83.6,-64.6L21.9,-61.3L21.5,-61.3L21.4,-61ZM86.6,-69.4L86.6,-69.4ZM24,-68.4L24,-68.5L24,-68.4ZM22.1,-71.1L22.2,-71.1L22.1,-71.1ZM12.9,-46.1L12.9,-46.1ZM48.4,-27.3Q47.3,-31.3 46.1,-33.55Q44.9,-35.8 44.9,-36.55Q44.9,-37.3 45.85,-37.85Q46.8,-38.4 48.1,-38.4Q49.4,-38.4 50.5,-35.7L51,-36Q60,-42.2 64.2,-47.1L65,-48L34.3,-45.5Q32.5,-45.3 30.9,-45.3Q29.3,-45.3 28.15,-46.45Q27,-47.6 26.4,-48.9Q25.8,-50.2 25.8,-50.5L25.8,-50.7Q25.9,-50.7 26,-50.7L29.8,-50.1L31.4,-50.1Q31.8,-50.1 32.3,-50.2L66.7,-52.8L66.8,-52.8Q67.2,-52.9 67.6,-52.9L68.2,-52.9Q70.8,-52.9 72.6,-50.5Q73.3,-49.6 73.3,-49.05Q73.3,-48.5 72.4,-47.85Q71.5,-47.2 70.9,-46.7Q62.1,-37.8 52.5,-31.4L53.9,-27L54.3,-27L83.4,-28.3Q86.7,-28.6 87.65,-28.95Q88.6,-29.3 89,-29.3Q89.4,-29.3 90.6,-28.6Q94.2,-26.3 94.2,-24.8Q94.2,-24.1 92.1,-23.9L55.6,-22.3L55,-22.3Q55.8,-17.5 56.1,-9.2L56.1,-7.5Q56.1,7 52.2,9.2Q51.3,9.6 50.35,9.6Q49.4,9.6 45.35,7.55Q41.3,5.5 35.7,1Q30.1,-3.5 29.9,-4.7L30.2,-4.7Q30.9,-4.7 32.7,-3.9Q39.9,-0.1 44.3,1.3Q48.7,2.7 49,2.7Q49.3,2.7 49.45,2.6Q49.6,2.5 49.7,2.3Q49.8,2.1 49.9,1.9Q50,1.7 50.05,1.4Q50.1,1.1 50.45,-0.65Q50.8,-2.4 50.8,-10Q50.8,-17.6 49.7,-22L49.3,-22L14.8,-20.6L12,-20.5Q10.2,-20.5 9.6,-21.3Q7.1,-24.7 7.1,-25.2L7.1,-25.8Q7.6,-25.7 8.6,-25.4Q9.6,-25.1 12,-25.1L12.9,-25.1L47.9,-26.7L48.6,-26.7L48.4,-27.3Z"></path><path transform="translate(400 100)" d="M25.2,-43L13.2,-41.8Q12.7,-41.7 12.2,-41.7L11.1,-41.7Q8.6,-41.7 7,-43.45Q5.4,-45.2 5.4,-45.85Q5.4,-46.5 5.6,-46.5Q8.2,-46.1 9.2,-46.1L10.5,-46.1Q10.9,-46.1 11.4,-46.2L28.2,-48Q28.9,-48 30.35,-47.05Q31.8,-46.1 31.8,-45.35Q31.8,-44.6 31.2,-44.1L30.4,-43.2L29.1,-9.7Q31.8,-11.4 37.25,-15.35Q42.7,-19.3 43.5,-19.35Q44.3,-19.4 44.5,-19.3Q44.3,-18.7 42.65,-16.95Q41,-15.2 35.45,-9.3Q29.9,-3.4 28.1,-2.3Q25,-0.6 24,-0.45Q23,-0.3 21.4,-1.4Q18.2,-3.3 17.1,-5.2Q17.5,-5.5 19.05,-5.75Q20.6,-6 23.9,-7.3L25.2,-43ZM39.9,-48.2Q42.2,-47.4 44.4,-47.4L45.7,-47.4L64.3,-48.3L64.3,-74.9Q64.3,-77.9 62.8,-79.5Q62.5,-79.9 62.5,-80.2Q62.5,-80.5 63.55,-80.5Q64.6,-80.5 66.6,-79.9Q68.6,-79.3 69.05,-78.85Q69.5,-78.4 69.5,-77.3L69.5,-48.7L85.4,-49.5Q88.9,-49.8 89.75,-50.15Q90.6,-50.5 90.95,-50.45Q91.3,-50.4 92.3,-49.7Q95.6,-47.2 95.6,-45.9Q95.6,-45.3 93.9,-45.1L69.5,-43.8L69.5,7.2Q69.5,9.3 68.2,9.3Q66.1,9 64.7,7.75Q63.3,6.5 63.3,5.45Q63.3,4.4 63.75,2.6Q64.2,0.8 64.2,-2.1L64.3,-43.5L48.4,-42.7Q48,-42.6 47.4,-42.6L46.4,-42.6Q43.9,-42.6 42.2,-43.75Q40.5,-44.9 39.9,-48.2ZM32.15,-66.45Q34.4,-64.2 35.9,-62.5Q37.4,-60.8 37.4,-60.1Q37.4,-59.4 36,-58.25Q34.6,-57.1 33.6,-57.1Q32.6,-57.1 30.9,-59.4Q25.3,-66.4 19.1,-71.9Q18.1,-72.8 18.1,-73.25Q18.1,-73.7 18.85,-74.75Q19.6,-75.8 20.4,-75.8Q21.2,-75.8 23.05,-74.4Q24.9,-73 27.4,-70.85Q29.9,-68.7 32.15,-66.45Z"></path><path transform="translate(500 100)" d="M89.2,5.3Q89.2,6.9 87.8,8.5Q86.4,10.1 85,10.1Q82.8,10.1 77.65,6.05Q72.5,2 70.05,-0.8Q67.6,-3.6 67.6,-4Q67.7,-4.1 68.25,-4.1Q68.8,-4.1 74.5,-1.1Q80.2,1.9 83.5,2.8L83.5,-74.8Q83.5,-77.2 82.55,-78.6Q81.6,-80 81.6,-80.4Q81.7,-80.6 82.7,-80.6Q83.7,-80.6 85.9,-79.8Q88.1,-79 88.55,-78.5Q89,-78 89,-77.1L89,1.9L89.2,5.3ZM89.2,5.3L89.2,5.3ZM64.7,-61.6Q64.5,-62.1 64.5,-62.35Q64.5,-62.6 65.35,-62.6Q66.2,-62.6 68.2,-61.9Q70.2,-61.2 70.55,-60.65Q70.9,-60.1 70.9,-59.2L70.8,-15Q70.8,-13.4 69.7,-13.4Q67.8,-13.4 66.5,-14.6Q65.2,-15.8 65.2,-17L65.2,-17.5Q65.2,-17.7 65.5,-19.05Q65.8,-20.4 65.8,-23.6L66.1,-56.9Q66.1,-59.4 64.7,-61.6ZM64.7,-61.6L64.7,-61.7L64.7,-61.6ZM7.4,6.9Q7,6.9 7,6.8Q7.1,6.3 8.3,5.3Q23.3,-6.3 31.9,-16.4L32.1,-16.6L32,-16.9Q27.9,-25.5 24.1,-44.5L15,-43Q14.1,-42.8 12.8,-42.8Q10.9,-42.7 9,-46.4L8.8,-46.9Q8.8,-47 9.2,-47L9.3,-47Q9.9,-46.9 10.3,-46.9L10.4,-46.9L11.1,-47Q12.7,-47 14.5,-47.3L23,-48.7L23.5,-48.8Q21.8,-57.4 21.3,-72.4Q21.2,-75.6 18.8,-77.3Q18.6,-77.4 18.5,-77.5Q19.1,-77.7 21.05,-77.75Q23,-77.8 24.55,-77.15Q26.1,-76.5 26.1,-75.4L26.1,-75.2Q26.6,-61.3 28.1,-50L28.2,-49.5L49.5,-53.1Q51.2,-53.4 52.2,-53.85Q53.2,-54.3 53.8,-54.35Q54.4,-54.4 55.3,-53.7Q57.8,-51.9 57.6,-51.1L57.6,-51Q57.6,-50 55.4,-49.8L29.3,-45.3L28.8,-45.2Q30.8,-35.2 35.5,-21.1Q40.8,-28.1 43.25,-33.25Q45.7,-38.4 45.7,-40L45.7,-41.7Q45.8,-42.8 46.3,-42.9Q46.7,-42.8 47.9,-42.2Q51.4,-40.1 51.5,-37.9Q51.3,-37.3 49.7,-34.2Q44.7,-24.9 37.8,-16.5L37.6,-16.3L37.8,-16Q42.5,-6.3 50.1,0.1Q50.5,0.4 51.1,0.4Q52.5,0.4 53.85,-3.25Q55.2,-6.9 57.1,-14.9L57.5,-16.5Q57.7,-18.1 58.2,-18.75Q58.7,-19.4 58.9,-19.4Q59.9,-19.4 59.8,-16.7L59.7,-16.3L59.7,-16.2Q59.2,-6 57,2Q56.3,4.4 55.45,5.7Q54.6,7 53.1,7Q51.6,7 48.65,5.45Q45.7,3.9 42,-0.15Q38.3,-4.2 34.4,-11.7L34.1,-12.4L33.6,-11.8Q26.6,-4.4 17.85,1.25Q9.1,6.9 7.4,6.9ZM45.7,-41.7L45.7,-41.7ZM48.6,-60.35Q47.4,-59.3 46.6,-59.3Q45.9,-59.4 43.45,-62.8Q41,-66.2 35,-71.5Q33.9,-72.5 33.9,-73.2Q33.9,-73.9 34.9,-74.75Q35.9,-75.6 36.45,-75.6Q37,-75.6 39.4,-73.75Q41.8,-71.9 45.8,-67.7Q49.8,-63.5 49.8,-62.45Q49.8,-61.4 48.6,-60.35Z"></path><path transform="translate(0 200)" d="M30.2,-60.7L3,-60.7L3,-65.8L62.6,-65.8L62.6,-60.7L36.8,-60.7L36.8,-0L30.2,-0L30.2,-60.7Z"></path><path transform="translate(63 200)" d="M36.2,-33.85Q33.4,-37.3 28.3,-37.3Q24.5,-37.3 20.8,-35.4Q17.1,-33.5 14.4,-29.7L14.4,-0L8.5,-0L8.5,-70.5L14.4,-71.6L14.4,-34.7Q17.7,-38.3 21.95,-40.05Q26.2,-41.8 30.5,-41.8Q37.1,-41.8 41,-37.65Q44.9,-33.5 44.9,-26.1L44.9,-0L39,-0L39,-24.2Q39,-30.4 36.2,-33.85Z"></path><path transform="translate(116 200)" d="M14.4,-1.65Q9.9,-4.1 7.4,-8.65Q4.9,-13.2 4.9,-19.3Q4.9,-26 7.7,-31.15Q10.5,-36.3 15.35,-39.15Q20.2,-42 26.2,-42Q33.3,-42 37,-38Q40.7,-34 40.7,-26.7Q40.7,-24.6 40.6,-23.6L10.8,-23.6Q10.5,-22 10.5,-20Q10.5,-12.7 14.75,-8.3Q19,-3.9 25.8,-3.9Q32.9,-3.9 38.5,-9.1L40.7,-5.9Q36.9,-2.3 33,-0.75Q29.1,0.8 24.7,0.8Q18.9,0.8 14.4,-1.65ZM35.4,-27.4Q35.1,-37.7 25.9,-37.7Q20.8,-37.7 17.1,-34.95Q13.4,-32.2 11.7,-27.4L35.4,-27.4Z"></path><path transform="translate(161 200)" d=""></path><path transform="translate(186 200)" d="M17.4,-24.2L17.4,-0L11.2,-0L11.2,-65.8L28.6,-65.8Q39.7,-65.8 46.3,-60.75Q52.9,-55.7 52.9,-46.6Q52.9,-40.2 49.6,-34.95Q46.3,-29.7 40.25,-26.65Q34.2,-23.6 26.2,-23.6Q21.6,-23.6 17.4,-24.2ZM26.9,-28.6Q36.3,-28.6 41.35,-33.05Q46.4,-37.5 46.4,-45.2Q46.4,-52.8 41.4,-56.9Q36.4,-61 27.7,-61L17.4,-61L17.4,-29.1Q22,-28.6 26.9,-28.6Z"></path><path transform="translate(242 200)" d="M8,-40.8L12.9,-41.8L13.8,-32.5Q19.9,-41.8 28.4,-41.8Q32.7,-41.8 35.5,-39.5L33,-34.7Q31.9,-35.6 30.2,-36.1Q28.5,-36.6 26.7,-36.6Q23.1,-36.6 19.95,-34.35Q16.8,-32.1 13.9,-27.6L13.9,-0L8,-0L8,-40.8Z"></path><path transform="translate(278 200)" d="M14.45,-1.9Q9.7,-4.6 7,-9.4Q4.3,-14.2 4.3,-20.2Q4.3,-26.5 7.2,-31.45Q10.1,-36.4 15.15,-39.2Q20.2,-42 26.6,-42Q32.5,-42 37.25,-39.3Q42,-36.6 44.7,-31.9Q47.4,-27.2 47.4,-21.2Q47.4,-14.9 44.5,-9.9Q41.6,-4.9 36.55,-2.05Q31.5,0.8 25.2,0.8Q19.2,0.8 14.45,-1.9ZM12.6,-11.75Q14.6,-7.8 18.1,-5.6Q21.6,-3.4 26,-3.4Q30.5,-3.4 33.95,-5.7Q37.4,-8 39.25,-11.95Q41.1,-15.9 41.1,-20.6Q41.1,-25.7 39.1,-29.6Q37.1,-33.5 33.6,-35.65Q30.1,-37.8 25.8,-37.8Q18.9,-37.8 14.75,-32.95Q10.6,-28.1 10.6,-20.8Q10.6,-15.7 12.6,-11.75Z"></path><path transform="translate(330 200)" d="M9.9,-40.8L15.8,-41.8L15.8,1.3Q15.8,13 12.3,19.75Q8.8,26.5 1.4,28.9L0,25.9Q5,23.5 7.45,17.5Q9.9,11.5 9.9,1.3L9.9,-40.8ZM9.7,-61.4Q10.9,-62.6 12.9,-62.6Q14.8,-62.6 16,-61.4Q17.2,-60.2 17.2,-58.3Q17.2,-56.4 16,-55.25Q14.8,-54.1 12.9,-54.1Q10.9,-54.1 9.7,-55.25Q8.5,-56.4 8.5,-58.3Q8.5,-60.2 9.7,-61.4Z"></path><path transform="translate(356 200)" d="M14.4,-1.65Q9.9,-4.1 7.4,-8.65Q4.9,-13.2 4.9,-19.3Q4.9,-26 7.7,-31.15Q10.5,-36.3 15.35,-39.15Q20.2,-42 26.2,-42Q33.3,-42 37,-38Q40.7,-34 40.7,-26.7Q40.7,-24.6 40.6,-23.6L10.8,-23.6Q10.5,-22 10.5,-20Q10.5,-12.7 14.75,-8.3Q19,-3.9 25.8,-3.9Q32.9,-3.9 38.5,-9.1L40.7,-5.9Q36.9,-2.3 33,-0.75Q29.1,0.8 24.7,0.8Q18.9,0.8 14.4,-1.65ZM35.4,-27.4Q35.1,-37.7 25.9,-37.7Q20.8,-37.7 17.1,-34.95Q13.4,-32.2 11.7,-27.4L35.4,-27.4Z"></path><path transform="translate(401 200)" d="M14.45,-1.9Q9.7,-4.6 7,-9.35Q4.3,-14.1 4.3,-20.1Q4.3,-26.3 7.15,-31.3Q10,-36.3 15,-39.15Q20,-42 26.1,-42Q34.1,-42 39.8,-36.8L37.2,-32.3Q32,-37.7 25.4,-37.7Q18.7,-37.7 14.65,-32.8Q10.6,-27.9 10.6,-20.7Q10.6,-15.7 12.7,-11.85Q14.8,-8 18.45,-5.9Q22.1,-3.8 26.7,-3.8Q29.9,-3.8 32.95,-5.1Q36,-6.4 38.5,-8.8L40.5,-5.4Q34.3,0.8 25.2,0.8Q19.2,0.8 14.45,-1.9Z"></path><path transform="translate(444 200)" d="M14.55,-2.6Q11.2,-5.9 11.2,-11.8L11.2,-36L2.6,-36L3,-40.1L11.4,-40.2L13.1,-50L17.1,-50.8L17.1,-40.3L33.8,-40.5L33.6,-36L17.1,-36L17.1,-12.8Q17.1,-8.4 19.15,-6.05Q21.2,-3.7 25,-3.7Q29.7,-3.7 33.9,-7.2L35.7,-4.3Q30.3,0.7 23.4,0.7Q17.9,0.7 14.55,-2.6Z"></path><path transform="translate(482 200)" d=""></path><path transform="translate(507 200)" d="M11.2,-65.8L49.4,-65.8L49.4,-60.7L17.5,-60.7L17.5,-33.7L45.6,-33.7L45.6,-28.6L17.5,-28.6L17.5,-0L11.2,-0L11.2,-65.8Z"></path><path transform="translate(559 200)" d="M14.45,-1.9Q9.7,-4.6 7,-9.4Q4.3,-14.2 4.3,-20.2Q4.3,-26.5 7.2,-31.45Q10.1,-36.4 15.15,-39.2Q20.2,-42 26.6,-42Q32.5,-42 37.25,-39.3Q42,-36.6 44.7,-31.9Q47.4,-27.2 47.4,-21.2Q47.4,-14.9 44.5,-9.9Q41.6,-4.9 36.55,-2.05Q31.5,0.8 25.2,0.8Q19.2,0.8 14.45,-1.9ZM12.6,-11.75Q14.6,-7.8 18.1,-5.6Q21.6,-3.4 26,-3.4Q30.5,-3.4 33.95,-5.7Q37.4,-8 39.25,-11.95Q41.1,-15.9 41.1,-20.6Q41.1,-25.7 39.1,-29.6Q37.1,-33.5 33.6,-35.65Q30.1,-37.8 25.8,-37.8Q18.9,-37.8 14.75,-32.95Q10.6,-28.1 10.6,-20.8Q10.6,-15.7 12.6,-11.75Z"></path><path transform="translate(611 200)" d="M8,-40.8L12.9,-41.8L13.8,-32.5Q19.9,-41.8 28.4,-41.8Q32.7,-41.8 35.5,-39.5L33,-34.7Q31.9,-35.6 30.2,-36.1Q28.5,-36.6 26.7,-36.6Q23.1,-36.6 19.95,-34.35Q16.8,-32.1 13.9,-27.6L13.9,-0L8,-0L8,-40.8Z"></path><path transform="translate(648 200)" d=""></path><path transform="translate(673 200)" d="M49.5,-58.5L30.9,-0L24.6,-0L5,-65.8L11.6,-65.8L28.3,-7.7L46.6,-65.8L53.4,-65.8L72.1,-7.8L88.4,-65.8L94.4,-65.8L74.6,-0L68.4,-0L49.5,-58.5Z"></path><path transform="translate(765 200)" d="M14.4,-1.65Q9.9,-4.1 7.4,-8.65Q4.9,-13.2 4.9,-19.3Q4.9,-26 7.7,-31.15Q10.5,-36.3 15.35,-39.15Q20.2,-42 26.2,-42Q33.3,-42 37,-38Q40.7,-34 40.7,-26.7Q40.7,-24.6 40.6,-23.6L10.8,-23.6Q10.5,-22 10.5,-20Q10.5,-12.7 14.75,-8.3Q19,-3.9 25.8,-3.9Q32.9,-3.9 38.5,-9.1L40.7,-5.9Q36.9,-2.3 33,-0.75Q29.1,0.8 24.7,0.8Q18.9,0.8 14.4,-1.65ZM35.4,-27.4Q35.1,-37.7 25.9,-37.7Q20.8,-37.7 17.1,-34.95Q13.4,-32.2 11.7,-27.4L35.4,-27.4Z"></path><path transform="translate(810 200)" d="M15.3,-0.85Q10.7,-2.2 8.5,-4.5L8.5,-70.6L14.3,-71.6L14.3,-35Q21.1,-41.8 29.7,-41.8Q34.9,-41.8 39.05,-39.35Q43.2,-36.9 45.55,-32.4Q47.9,-27.9 47.9,-22Q47.9,-15.8 45.2,-10.65Q42.5,-5.5 37.3,-2.5Q32.1,0.5 24.8,0.5Q19.9,0.5 15.3,-0.85ZM19.6,-4.55Q22.9,-3.5 26.5,-3.5Q33.6,-3.5 37.65,-8.25Q41.7,-13 41.7,-20.3Q41.7,-28.1 37.85,-32.7Q34,-37.3 27.7,-37.3Q24.2,-37.3 20.6,-35.4Q17,-33.5 14.3,-29.6L14.3,-7.6Q16.3,-5.6 19.6,-4.55Z"></path></svg>